<?xml version="1.0" encoding="utf-8"?>
<!-- Generator: Adobe Illustrator 19.1.0, SVG Export Plug-In . SVG Version: 6.00 Build 0)  -->
<svg version="1.1" id="Layer_1" xmlns="http://www.w3.org/2000/svg" xmlns:xlink="http://www.w3.org/1999/xlink" x="0px" y="0px"
	 viewBox="0 0 81 39.9" style="enable-background:new 0 0 81 39.9;" xml:space="preserve">
<style type="text/css">
	.st0{fill:#FFFFFF;}
	.st1{fill:#FFF8EA;}
	.st2{clip-path:url(#SVGID_2_);}
	.st3{fill:none;stroke:#F2F2F2;stroke-miterlimit:10;}
	.st4{fill:#FFF7EA;}
	.st5{fill:#211841;}
	.st6{fill:#E34B26;}
	.st7{opacity:0.5;}
	.st8{clip-path:url(#SVGID_6_);}
	.st9{fill:none;stroke:#E6E6E6;stroke-miterlimit:10;}
	.st10{fill:#262639;}
	.st11{fill:#EBEBEB;}
	.st12{fill:#27273B;}
	.st13{clip-path:url(#SVGID_14_);}
	.st14{fill:none;stroke:#E34B26;stroke-miterlimit:10;}
	.st15{clip-path:url(#SVGID_20_);}
	.st16{fill:none;stroke:#DC105E;stroke-miterlimit:10;}
	.st17{fill:#E9C966;}
	.st18{fill-rule:evenodd;clip-rule:evenodd;fill:#FFF7EB;}
	.st19{fill-rule:evenodd;clip-rule:evenodd;fill:#ED3724;}
	.st20{fill-rule:evenodd;clip-rule:evenodd;}
	.st21{fill:#FFF8EB;}
	.st22{clip-path:url(#SVGID_24_);}
	.st23{fill:#FEF6E6;}
	.st24{fill:#28283B;}
	.st25{fill:#FEFEF6;}
	.st26{fill:#FEFEFC;}
	.st27{fill:#FEFEEE;}
	.st28{fill:#070707;}
	.st29{fill:#151514;}
	.st30{fill:#121110;}
	.st31{display:none;fill:#28283B;stroke:#FDF5E6;stroke-width:2;stroke-miterlimit:10;}
	
		.st32{fill-rule:evenodd;clip-rule:evenodd;fill:#FFF6EB;stroke:#000101;stroke-width:4;stroke-linecap:round;stroke-linejoin:round;stroke-miterlimit:2.6131;}
	.st33{fill-rule:evenodd;clip-rule:evenodd;fill:#28283B;stroke:#000000;stroke-width:2;stroke-miterlimit:2.6131;}
	
		.st34{fill-rule:evenodd;clip-rule:evenodd;fill:none;stroke:#000101;stroke-width:3;stroke-linecap:round;stroke-linejoin:round;stroke-miterlimit:2.6131;}
	.st35{fill-rule:evenodd;clip-rule:evenodd;fill:#000101;stroke:#000101;stroke-width:3;stroke-miterlimit:2.6131;}
	.st36{fill-rule:evenodd;clip-rule:evenodd;stroke:#000000;stroke-miterlimit:10;}
	.st37{fill:#DD4A28;stroke:#000000;stroke-width:2;stroke-miterlimit:10;}
	.st38{fill:none;stroke:#FDF5E6;stroke-width:2;stroke-miterlimit:10;}
	.st39{fill:#FDF5E6;}
	
		.st40{fill-rule:evenodd;clip-rule:evenodd;fill:#EB260A;stroke:#000000;stroke-linecap:round;stroke-linejoin:round;stroke-miterlimit:2.6131;}
	
		.st41{fill-rule:evenodd;clip-rule:evenodd;fill:#FFFAF5;stroke:#000000;stroke-linecap:round;stroke-linejoin:round;stroke-miterlimit:2.6131;}
	.st42{fill-rule:evenodd;clip-rule:evenodd;fill:#FFFAF5;}
	.st43{fill-rule:evenodd;clip-rule:evenodd;fill:#FFFAF5;stroke:#000000;stroke-miterlimit:2.6131;}
	.st44{fill:none;stroke:#000000;stroke-linecap:round;stroke-linejoin:round;stroke-miterlimit:2.6131;}
	.st45{fill:none;stroke:#EB260A;stroke-width:2.0001;stroke-linecap:round;stroke-linejoin:round;stroke-miterlimit:2.6131;}
	.st46{fill-rule:evenodd;clip-rule:evenodd;fill:#CDCCCB;}
	.st47{fill:#FFFAF5;stroke:#000000;stroke-linecap:round;stroke-linejoin:round;stroke-miterlimit:2.6131;}
	.st48{fill:#EB260A;stroke:#000000;stroke-linecap:round;stroke-linejoin:round;stroke-miterlimit:2.6131;}
	.st49{clip-path:url(#SVGID_28_);}
	.st50{display:none;fill:none;stroke:#DC105E;stroke-miterlimit:10;}
</style>
<g>
	<path class="st47" d="M66.7,30c0.9,0.2,1.8,0.3,2.7,0.5c3,0.5,6,1.3,8.8,2.5c0.5,0.2,1,0.5,1.5,0.8c0.1,0,0.2,0.1,0.2,0.2
		c0.1,0.3,0.2,0.6,0.3,0.9c0.2,0.4,0.3,0.7,0,1.1c-0.3,0.4-0.6,0.8-0.9,1.2c-0.1,0.1-0.2,0.1-0.4,0.1c-0.7-0.1-1.4-0.2-2-0.4
		c-3.5-1.1-7-1.9-10.6-2.6c-0.6-0.1-1.3-0.2-1.9-0.4c-0.6-0.2-1.2,0-1.5,0.5c-0.6,0.9-1.3,1.8-1.9,2.8c-0.4,0.6-0.9,1.3-1.3,1.9
		c-0.2,0.3-0.5,0.4-0.8,0.4c-0.7-0.1-1.5-0.2-2.2-0.3c-0.1,0-0.3-0.1-0.4-0.2c-0.7-0.3-0.7-0.4-0.5-1.1c-0.7-0.5-0.7-0.5-0.3-1.3
		c0.6-1.1,1.2-2.1,1.8-3.2c0.1-0.1,0.2-0.3,0.3-0.5c-0.5,0-1-0.1-1.4-0.1c-4.3-0.3-8.6-0.4-12.9-0.2c-3.2,0.1-6.3,0.3-9.5,0.5
		c-3.2,0.3-6.3,0.6-9.5,1c-3.4,0.4-6.8,0.9-10.2,1.4c-2.7,0.4-5.3,0.9-8,1.4c-2,0.4-3.7-0.2-5.2-1.4c-0.2-0.2-0.2-0.3,0.1-0.7
		c-0.2-0.1-0.4-0.2-0.5-0.4c-0.3-0.3-0.3-0.5,0.1-0.6c0.9-0.3,1.7-0.6,2.6-0.8c3.4-0.7,6.8-1.5,10.2-2c4.3-0.7,8.7-1.3,13-1.8
		c2.7-0.3,5.4-0.4,8.1-0.5c4.7-0.1,9.4-0.3,14.1-0.2c3.3,0,6.5,0.3,9.8,0.4c0.4,0,0.9,0.1,1.3,0.2c0.4,0.1,0.8-0.1,1-0.5
		c0.2-0.3,0.4-0.7,0.7-1c-0.3,0-0.5,0-0.7,0c-0.6-0.1-1-0.4-1.3-0.8C58.9,26,58.9,26,58,26.4c-1.2,0.6-2.5,1-3.9,1.1
		c-2.4,0.2-4.1-0.8-5.2-2.9c-0.3-0.6-0.4-0.6-1-0.3c-0.8,0.4-1.6,0.9-2.4,1.3c-1.1,0.6-2.2,1-3.5,0.9c-0.6-0.1-1.2-0.2-1.8-0.4
		c-0.6-0.2-1-0.7-1.3-1.3c-0.5-1.2-0.5-1.2-1.7-0.5c-1.5,0.9-3.1,1.8-4.8,2.3c-0.6,0.2-1.3,0.5-1.9,0.6c-1.7,0.4-3.1-0.2-4.2-1.5
		c-0.1-0.1-0.1-0.1-0.2-0.3c-0.3,0.2-0.7,0.4-1,0.7c-1.2,1-2.4,1-3.8,0.4c-2.2-1.1-3.5-3-4-5.4c-0.2-0.7,0-1.4,0.4-2
		c0.2-0.3,0.5-0.6,0.7-0.9c2.4-2.3,4.9-4.4,7.8-6c1.1-0.6,2.2-1,3.4-0.9c1.6,0.2,2.8,1,3.9,2.1c1,1.1,1.4,2.4,1.6,3.8
		c0.1,0.7-0.1,1.3-0.6,1.9c-0.3,0.4-0.7,0.8-1.1,1.2c-0.9,0.8-1.8,1.7-2.6,2.6c0.2-0.1,0.3-0.1,0.5-0.2c1.2-0.5,2.3-1.3,3.3-2.1
		c3-2.6,5.8-5.4,8.6-8.2c2.2-2.2,4.4-4.3,6.6-6.5c0,0,0.1-0.1,0.1-0.1c1.7-1.6,3.2-1.8,5.2-0.6c0.6,0.3,0.8,0.6,0.6,1.2
		c0,0,0,0.1,0,0.1c0.6,0.4,0.7,0.7,0.1,1.3c-0.3,0.3-0.6,0.5-0.9,0.8c-4.6,3.7-8.8,7.8-12.3,12.5c-0.3,0.4-0.5,0.7-0.7,1.1
		c0,0,0,0.1,0.1,0.1c0.3,0,0.6,0,0.9-0.1c0.5-0.2,1-0.5,1.4-0.9c2.3-2,4.6-4.1,6.8-6.2c3-2.9,6.1-5.6,9.2-8.4c1.1-1,2.3-1.2,3.6-0.6
		c0.5,0.2,1,0.5,1.5,0.8c0.4,0.2,0.4,0.3,0.1,0.8c0,0-0.1,0.1-0.1,0.1c1.1,0.6,0.8,0.6,0.1,1.2c-1.7,1.4-3.4,2.7-5,4
		c-3.3,2.8-6.1,6.1-8.6,9.7c0,0.1-0.1,0.1-0.1,0.2c0.5,0.6,1.2,0.8,1.9,0.5c0.6-0.2,1.3-0.6,1.7-1c1.4-1.3,2.7-2.6,4-4
		c1.4-1.4,2.8-2.9,4.1-4.4c0.7-0.8,1.4-1,2.3-0.8c0.7,0.2,1.5,0.4,2.2,0.7c0.6,0.2,0.6,0.3,0.4,0.9c0.6,0.4,0.6,0.7,0.2,1.3
		c-0.3,0.3-0.6,0.6-0.9,0.9c-1.8,1.7-3.5,3.5-5,5.6c-0.2,0.3-0.4,0.6-0.6,0.8c0,0,0.1,0.1,0.1,0.1c0.6-0.2,1.3-0.4,1.9-0.7
		c1.7-0.8,3.2-1.9,4.6-3.1c1.5-1.3,2.9-2.6,4.3-4c0.6-0.6,1.4-0.6,2.1-0.5c0.9,0.3,1.9,0.6,2.8,1c0.4,0.2,0.1,0.5,0,0.8
		c0.7,0.5,0.7,0.8,0,1.4c-1.6,1.5-3.2,2.8-4.7,4.4c-2.2,2.2-4.3,4.4-6.4,6.6C66.9,29.7,66.9,29.8,66.7,30z M30.8,16.2
		c-0.2,0-0.3,0-0.5,0.1c-0.5,0.3-1.1,0.5-1.6,0.8c-2.1,1.6-4.1,3.3-6.2,4.9c-0.2,0.2-0.4,0.4-0.5,0.6C22,22.7,22,22.9,21.9,23
		C24.3,22.7,29.9,18.4,30.8,16.2z"/>
	<path class="st48" d="M18.1,5.3c-0.9,0.1-1.7,0.1-2.4,0.2c-1.9,0.2-3.8,0.4-5.7,0.7C9.4,6.2,8.9,6.4,8.3,6.6
		c-0.6,0.1-1.1,0-1.5-0.4C6.5,5.9,6.3,5.6,6,5.3C5.7,5,5.5,4.7,5.2,4.4C5,4.2,4.8,4,4.8,3.7c0-0.2-0.2-0.4-0.3-0.6
		C4.2,2.7,4.3,2.5,4.7,2.4c0.9-0.2,1.8-0.5,2.8-0.6C9,1.5,10.5,1.3,12,1.1c1.5-0.2,3-0.3,4.5-0.4c3.3-0.1,6.5-0.2,9.8-0.2
		c3.1,0,6.2,0.3,9.3,0.8c0.2,0,0.3,0.1,0.4,0.3c0.8,1.1,1.1,2.3,1.1,3.7c0,0.3-0.1,0.3-0.3,0.3c-0.7,0-1.4,0.1-2.1,0
		c-2-0.1-3.9-0.2-5.9-0.4C28,5.2,27,5.1,26.1,5c-0.9-0.1-1.5,0.2-2.1,0.9c-4,5.3-8,10.6-11.4,16.3c-0.6,1-1.1,2.1-1.7,3.1
		c-0.6,1.1-0.9,1.2-2.1,1.1c-0.7-0.1-1.5-0.1-2.2-0.1c-0.2,0-0.4,0-0.6,0c-0.6-0.1-0.7-0.2-0.6-0.8c0-0.1-0.1-0.3-0.2-0.4
		C5,25,4.9,24.7,5,24.4c0.2-0.5,0.4-1,0.7-1.5c2.4-3.9,5-7.6,7.7-11.3c1.5-1.9,2.9-3.9,4.4-5.8C17.9,5.6,17.9,5.5,18.1,5.3z"/>
</g>
</svg>
