<?xml version="1.0" encoding="utf-8"?>
<!-- Generator: Adobe Illustrator 19.0.0, SVG Export Plug-In . SVG Version: 6.00 Build 0)  -->
<svg version="1.1" id="Layer_1" xmlns="http://www.w3.org/2000/svg" xmlns:xlink="http://www.w3.org/1999/xlink" x="0px" y="0px"
	 width="624px" height="184px" viewBox="0 0 624 184" style="enable-background:new 0 0 624 184;" xml:space="preserve">
<g>
	<g>
		<g>
			<path d="M247.9,37.9c-2.6-2.1-5.9-3.3-10-3.5h-16c-4.8,0.2-8.4,1.5-10.6,3.9c-2.2,2.4-3.3,5.1-3.3,8.3V77c0,3.3,1.7,5.8,4.9,7.3
				c2.6,1.2,5.2,1.8,7.7,1.8h14.7c4.2,0,5.2,0.7,5.3,0.7c0.2,0.2,0.7,0.6,0.7,2v27.6c0,1.9-0.4,3.4-1.1,4.4c-0.7,1-2.5,1.2-3.8,1.2
				h-12.2c-3.7,0-4.5-0.9-4.6-1c-0.5-0.6-1-1.9-1-4.5V97.2h-10.7v22.7c0,2.9,1.4,5.5,4.2,7.7c2.6,2.1,5.9,3.3,10,3.5h16h0
				c4.8-0.2,8.4-1.5,10.6-3.9c2.2-2.4,3.3-5.1,3.3-8.3v-33c0-1.6-0.6-3.1-1.7-4.2c-0.9-0.9-1.9-1.8-3-2.5c-1.1-0.7-2.4-1.2-3.7-1.6
				c-1.4-0.4-2.5-0.6-3.4-0.6h-17.2c-2.9,0-3.7-0.4-3.8-0.3c-0.3-0.6-0.5-1.5-0.5-2.7V49c0-1.9,0.3-3.5,1-4.5
				c0.5-0.7,1.9-1.1,3.9-1.1h12.2c3.5,0,4.4,0.8,4.6,1.1c0.7,0.9,1,2.5,1,4.6v19.1h10.7V45.6C252.1,42.7,250.7,40.1,247.9,37.9z"/>
			<path d="M318.8,37.9c-2.6-2.1-5.9-3.3-10-3.5h-15.9c-4.9,0-8.5,1.3-10.7,3.8c-2.2,2.4-3.3,5.2-3.3,8.4v72.3c0,2.9,1,5.6,3.1,8.1
				c2.1,2.5,5.7,3.9,10.6,4.1h17.4h0.1c4.2-0.2,7.4-1.4,9.6-3.7c2.2-2.3,3.4-4.9,3.4-7.7v-74C323,42.7,321.6,40.1,318.8,37.9z
				 M312.3,49.1v67.1c0,2.1-0.4,3.7-1,4.6c-0.2,0.3-1.1,1.1-4.6,1.1H297c-4.9,0-6.1-1-6.3-1.2c-0.8-0.9-1.2-2.4-1.2-4.4V49
				c0-1.8,0.5-3.1,1.4-4.1c1-1,2.1-1.5,3.5-1.5h12.2c3.5,0,4.4,0.8,4.6,1.1C311.9,45.4,312.3,47,312.3,49.1z"/>
			<path d="M389.6,37.9c-2.6-2.1-5.9-3.3-10-3.5h-15.9c-4.3,0-7.8,1.2-10.3,3.7c-2.5,2.5-3.7,5.3-3.7,8.5v72.3c0,2.9,1,5.6,3.1,8.1
				c2.1,2.5,5.6,3.9,10.6,4.1h17.4h0c4.2-0.2,7.4-1.4,9.7-3.7c2.2-2.3,3.4-4.9,3.4-7.7V97.2h-10.7v19.1c0,2.1-0.4,3.7-1,4.6
				c-0.2,0.3-1.1,1.1-4.6,1.1h-9.3c-4.7,0-6.1-0.9-6.5-1.3c-0.9-0.9-1.3-2.4-1.3-4.3V49c0-1.8,0.5-3.1,1.4-4.1c1-1,2.1-1.5,3.5-1.5
				h12.2c3.7,0,4.5,0.9,4.6,1c0.5,0.6,1,1.9,1,4.5v19.2h10.7V45.6C393.8,42.7,392.4,40.1,389.6,37.9z"/>
			<polygon points="466.6,34.4 454.8,34.4 431.2,75.8 431.2,34.4 420.6,34.4 420.6,131 431.2,131 431.2,95.1 437,85.5 455.7,131 
				466.9,131 444,74.6 			"/>
			<polygon points="492.5,131 536.8,131 536.8,121.9 503.2,121.9 503.2,85.8 533,85.8 533,76.8 503.2,76.8 503.2,43.4 536.8,43.4 
				536.8,34.4 492.5,34.4 			"/>
			<polygon points="563.5,34.4 563.5,43.4 580.3,43.4 580.3,131 591.2,131 591.2,43.4 608,43.4 608,34.4 			"/>
		</g>
		<g>
			<path d="M76.1,60.8c0-5-4.1-9.1-9.1-9.1c-5,0-9.1,4.1-9.1,9.1c0,5,4.1,9.1,9.1,9.1C72,69.9,76.1,65.8,76.1,60.8z"/>
			<path d="M127.8,60.8c0-5-4.1-9.1-9.1-9.1c-5,0-9.1,4.1-9.1,9.1c0,5,4.1,9.1,9.1,9.1C123.7,69.9,127.8,65.8,127.8,60.8z"/>
			<path d="M164.9,153.9h-10.6v-8.3h10.6c1.9,0,3.4-1.5,3.4-3.4c0-1.9-1.5-3.4-3.4-3.4h-10.6v-1.2c0-1.9-1.5-3.4-3.4-3.4
				c-8.5,0-14.6,3.8-16.8,10.1c-0.3-0.1-0.6-0.2-1-0.2H29.4V28h125.3v80c0,3.1,2.6,5.7,5.7,5.7c3.1,0,5.7-2.5,5.7-5.7V22.3
				c0-3.1-2.6-5.7-5.7-5.7H23.7c-3.1,0-5.7,2.5-5.7,5.7v127.5c0,3.1,2.5,5.7,5.7,5.7h109.4c0.3,0,0.6-0.1,0.9-0.2
				c2.5,7.3,9.9,10.1,16.9,10.1c1.9,0,3.4-1.5,3.4-3.4v-1.2h10.6c1.9,0,3.4-1.5,3.4-3.4C168.3,155.5,166.8,153.9,164.9,153.9z
				 M147.5,158.3c-3.7-0.7-7.6-2.8-7.6-8.5c0-5.8,3.9-7.8,7.6-8.5V158.3z"/>
			<g>
				<path d="M94.5,112c-10.1,0-18.4-1.5-18.9-1.5c-3.4-0.6-5.6-3.8-5-7.2c0.6-3.4,3.7-5.6,7.2-5c0.2,0,17.2,3,30.5,0
					c3.4-0.7,6.7,1.4,7.4,4.7c0.7,3.4-1.4,6.7-4.7,7.4C105.5,111.6,99.8,112,94.5,112z"/>
			</g>
		</g>
	</g>
</g>
</svg>
