<svg xmlns="http://www.w3.org/2000/svg" viewBox="1679 1220 149.562 98.226">
  <defs>
    <style>
      .cls-1, .cls-9 {
        fill: #f1f2f2;
      }

      .cls-2 {
        fill: #ee5d55;
      }

      .cls-3 {
        fill: #fbbc32;
      }

      .cls-4 {
        fill: #4eb44f;
      }

      .cls-5, .cls-7 {
        fill: none;
      }

      .cls-5, .cls-7, .cls-9 {
        stroke: #565b73;
        stroke-miterlimit: 10;
      }

      .cls-6 {
        fill: #156bb3;
      }

      .cls-7 {
        stroke-linecap: round;
        stroke-linejoin: round;
      }

      .cls-8 {
        fill: #fff;
      }
    </style>
  </defs>
  <g id="Group_3288" data-name="Group 3288" transform="translate(1423 171)">
    <g id="XMLID_89_" transform="translate(256 1049)">
      <path id="XMLID_90_" class="cls-1" d="M138.905,80.73H1.46A1.464,1.464,0,0,1,0,79.27V1.46A1.464,1.464,0,0,1,1.46,0H138.905a1.464,1.464,0,0,1,1.46,1.46V79.27A1.464,1.464,0,0,1,138.905,80.73Z"/>
    </g>
    <g id="XMLID_1_" transform="translate(259.796 1051.117)">
      <g id="XMLID_6_">
        <circle id="XMLID_7_" class="cls-2" cx="1.387" cy="1.387" r="1.387"/>
      </g>
      <g id="XMLID_4_" transform="translate(4.891)">
        <circle id="XMLID_5_" class="cls-3" cx="1.387" cy="1.387" r="1.387"/>
      </g>
      <g id="XMLID_2_" transform="translate(9.708)">
        <circle id="XMLID_3_" class="cls-4" cx="1.387" cy="1.387" r="1.387"/>
      </g>
    </g>
    <g id="Group_3265" data-name="Group 3265" transform="translate(-4.376 257.638)">
      <path id="Path_8629" data-name="Path 8629" class="cls-5" d="M141.231,299.242h-32A1.232,1.232,0,0,1,108,298.014v-3.686a1.232,1.232,0,0,1,1.229-1.228h32.064a1.232,1.232,0,0,1,1.229,1.228v3.686A1.33,1.33,0,0,1,141.231,299.242Z" transform="translate(205.376 526.262)"/>
      <path id="Path_8630" data-name="Path 8630" class="cls-5" d="M141.231,315.542h-32A1.232,1.232,0,0,1,108,314.314v-3.686a1.232,1.232,0,0,1,1.229-1.229h32.064a1.232,1.232,0,0,1,1.229,1.229v3.686A1.33,1.33,0,0,1,141.231,315.542Z" transform="translate(205.376 519.974)"/>
      <path id="Path_8631" data-name="Path 8631" class="cls-6" d="M138.633,329.942h-18.3a1.232,1.232,0,0,1-1.229-1.228v-3.685a1.232,1.232,0,0,1,1.229-1.229h18.3a1.232,1.232,0,0,1,1.228,1.229v3.685A1.232,1.232,0,0,1,138.633,329.942Z" transform="translate(201.094 514.419)"/>
      <g id="Group_2699" data-name="Group 2699" transform="translate(321.545 831.708)">
        <ellipse id="Ellipse_27" data-name="Ellipse 27" class="cls-6" cx="0.737" cy="0.737" rx="0.737" ry="0.737"/>
        <ellipse id="Ellipse_28" data-name="Ellipse 28" class="cls-6" cx="0.737" cy="0.737" rx="0.737" ry="0.737" transform="translate(3.317)"/>
        <ellipse id="Ellipse_29" data-name="Ellipse 29" class="cls-6" cx="0.737" cy="0.737" rx="0.737" ry="0.737" transform="translate(6.634)"/>
        <ellipse id="Ellipse_30" data-name="Ellipse 30" class="cls-6" cx="0.737" cy="0.737" rx="0.737" ry="0.737" transform="translate(9.951)"/>
        <ellipse id="Ellipse_31" data-name="Ellipse 31" class="cls-6" cx="0.737" cy="0.737" rx="0.737" ry="0.737" transform="translate(13.268)"/>
        <ellipse id="Ellipse_32" data-name="Ellipse 32" class="cls-6" cx="0.737" cy="0.737" rx="0.737" ry="0.737" transform="translate(16.646)"/>
      </g>
      <line id="Line_18" data-name="Line 18" class="cls-7" x2="29.054" transform="translate(316.079 822.433)"/>
    </g>
    <g id="Group_3269" data-name="Group 3269" transform="translate(4 46)">
      <g id="Group_3267" data-name="Group 3267" transform="translate(369.347 1040.305)">
        <g id="XMLID_103_">
          <path id="XMLID_106_" class="cls-8" d="M224.8,367.521H205.742a6.152,6.152,0,0,1-6.142-6.142V313.242a6.152,6.152,0,0,1,6.142-6.142H224.8a6.554,6.554,0,0,1,6.518,6.518v47.447A6.541,6.541,0,0,1,224.8,367.521Z" transform="translate(-199.6 -307.1)"/>
          <path id="XMLID_105_" class="cls-8" d="M225.649,313.43h-7.835a.83.83,0,0,1-.815-.815h0a.83.83,0,0,1,.815-.815h7.835a.83.83,0,0,1,.815.815h0A.83.83,0,0,1,225.649,313.43Z" transform="translate(-206.094 -308.854)"/>
          <ellipse id="XMLID_104_" class="cls-8" cx="2.507" cy="2.507" rx="2.507" ry="2.507" transform="translate(13.35 53.088)"/>
        </g>
        <g id="XMLID_99_">
          <path id="XMLID_102_" class="cls-5" d="M224.8,367.521H205.742a6.152,6.152,0,0,1-6.142-6.142V313.242a6.152,6.152,0,0,1,6.142-6.142H224.8a6.554,6.554,0,0,1,6.518,6.518v47.447A6.541,6.541,0,0,1,224.8,367.521Z" transform="translate(-199.6 -307.1)"/>
          <path id="XMLID_101_" class="cls-5" d="M225.649,313.43h-7.835a.83.83,0,0,1-.815-.815h0a.83.83,0,0,1,.815-.815h7.835a.83.83,0,0,1,.815.815h0A.83.83,0,0,1,225.649,313.43Z" transform="translate(-206.094 -308.854)"/>
          <ellipse id="XMLID_100_" class="cls-5" cx="2.507" cy="2.507" rx="2.507" ry="2.507" transform="translate(13.35 53.088)"/>
        </g>
        <path id="XMLID_98_" class="cls-9" d="M229.225,362.468H204.154a1.257,1.257,0,0,1-1.254-1.254V317.654a1.257,1.257,0,0,1,1.254-1.253h25.071a1.257,1.257,0,0,1,1.254,1.253v43.561A1.257,1.257,0,0,1,229.225,362.468Z" transform="translate(-200.832 -310.571)"/>
      </g>
      <g id="Group_3268" data-name="Group 3268" transform="translate(376.681 1060.236)">
        <path id="Path_8627" data-name="Path 8627" class="cls-5" d="M227.721,345.168H211.927a.592.592,0,0,1-.627-.627v-5.014a.592.592,0,0,1,.627-.627h15.795a.592.592,0,0,1,.627.627v5.014A.674.674,0,0,1,227.721,345.168Z" transform="translate(-211.3 -338.9)"/>
        <path id="Path_8628" data-name="Path 8628" class="cls-6" d="M226.327,357.437h-8.9a.592.592,0,0,1-.627-.627v-2.883a.592.592,0,0,1,.627-.627h8.9a.592.592,0,0,1,.627.627v2.883A.674.674,0,0,1,226.327,357.437Z" transform="translate(-213.353 -344.274)"/>
        <g id="Group_2697" data-name="Group 2697" transform="translate(2.695 2.382)">
          <ellipse id="Ellipse_23" data-name="Ellipse 23" class="cls-6" cx="0.752" cy="0.752" rx="0.752" ry="0.752"/>
          <ellipse id="Ellipse_24" data-name="Ellipse 24" class="cls-6" cx="0.752" cy="0.752" rx="0.752" ry="0.752" transform="translate(3.385)"/>
          <ellipse id="Ellipse_25" data-name="Ellipse 25" class="cls-6" cx="0.752" cy="0.752" rx="0.752" ry="0.752" transform="translate(6.769)"/>
          <ellipse id="Ellipse_26" data-name="Ellipse 26" class="cls-6" cx="0.752" cy="0.752" rx="0.752" ry="0.752" transform="translate(10.154)"/>
        </g>
      </g>
    </g>
    <g id="XMLID_81_" transform="translate(365.759 1116.294)">
      <path id="XMLID_97_" class="cls-1" d="M193.676,384.417h-1.9c-.141,0-.281,0-.281-.211a6.829,6.829,0,0,1,1.336-4.782,5.745,5.745,0,0,1,8.228-.633,5.677,5.677,0,0,1,1.969,4.43v.844c0,.281-.141.352-.352.352h-9Z" transform="translate(-189.597 -366.307)"/>
      <path id="XMLID_87_" class="cls-6" d="M196.395,385.4h-6.118a1.334,1.334,0,0,1-1.477-1.477v-9.212a1.315,1.315,0,0,1,1.477-1.406h12.236a1.262,1.262,0,0,1,1.406,1.406v9.212a1.262,1.262,0,0,1-1.406,1.406C200.474,385.4,198.434,385.4,196.395,385.4Zm0-2.6h.985c.281,0,.352-.07.281-.352-.211-.844-.352-1.688-.492-2.461a.567.567,0,0,1,.211-.633,1.513,1.513,0,0,0,.422-1.688,1.468,1.468,0,0,0-1.406-.914,1.607,1.607,0,0,0-1.406.984,1.513,1.513,0,0,0,.422,1.688.567.567,0,0,1,.211.633c-.211.844-.352,1.688-.492,2.461-.07.281,0,.422.281.352A4.978,4.978,0,0,1,196.395,382.794Z" transform="translate(-188.8 -365.105)"/>
      <path id="XMLID_86_" class="cls-1" d="M193.676,368.717h-1.9c-.141,0-.281,0-.281-.211a6.828,6.828,0,0,1,1.336-4.782,5.745,5.745,0,0,1,8.228-.633,5.677,5.677,0,0,1,1.969,4.43v.844c0,.281-.141.352-.352.352h-9Z" transform="translate(-189.597 -361.647)"/>
      <path id="XMLID_84_" class="cls-6" d="M201.663,368.746h-.914c-.211,0-.352-.07-.352-.352a5.715,5.715,0,0,0-.07-1.547,3.193,3.193,0,0,0-6.329.211,9.423,9.423,0,0,0-.07,1.407c0,.211-.07.352-.352.352h-1.9c-.141,0-.281,0-.281-.211a6.829,6.829,0,0,1,1.336-4.782,5.745,5.745,0,0,1,8.228-.633,5.677,5.677,0,0,1,1.969,4.43v.844c0,.281-.141.352-.352.352A4.324,4.324,0,0,0,201.663,368.746Z" transform="translate(-189.567 -361.677)"/>
    </g>
  </g>
</svg>
