<svg xmlns="http://www.w3.org/2000/svg" xmlns:xlink="http://www.w3.org/1999/xlink" viewBox="2427 1218 158.02 82.73">
  <defs>
    <style>
      .cls-1 {
        fill: #f1f2f2;
      }

      .cls-2 {
        fill: #156bb3;
      }

      .cls-3 {
        fill: #fff;
        font-size: 4px;
        font-family: Avenir-Book, Avenir;
      }

      .cls-4 {
        fill: #b3b3b3;
      }

      .cls-5 {
        fill: #ee5d55;
      }

      .cls-6 {
        fill: #fbbc32;
      }

      .cls-7 {
        fill: #4eb44f;
      }

      .cls-8 {
        filter: url(#Path_9057);
      }

      .cls-9 {
        filter: url(#Path_9056);
      }

      .cls-10 {
        filter: url(#Path_9055);
      }
    </style>
    <filter id="Path_9055" x="2518" y="1218" width="43.049" height="29" filterUnits="userSpaceOnUse">
      <feOffset dy="3" input="SourceAlpha"/>
      <feGaussianBlur stdDeviation="3" result="blur"/>
      <feFlood flood-opacity="0.161"/>
      <feComposite operator="in" in2="blur"/>
      <feComposite in="SourceGraphic"/>
    </filter>
    <filter id="Path_9056" x="2546" y="1218" width="39.02" height="29" filterUnits="userSpaceOnUse">
      <feOffset dy="3" input="SourceAlpha"/>
      <feGaussianBlur stdDeviation="3" result="blur-2"/>
      <feFlood flood-opacity="0.161"/>
      <feComposite operator="in" in2="blur-2"/>
      <feComposite in="SourceGraphic"/>
    </filter>
    <filter id="Path_9057" x="2483" y="1218" width="50.237" height="29" filterUnits="userSpaceOnUse">
      <feOffset dy="3" input="SourceAlpha"/>
      <feGaussianBlur stdDeviation="3" result="blur-3"/>
      <feFlood flood-opacity="0.161"/>
      <feComposite operator="in" in2="blur-3"/>
      <feComposite in="SourceGraphic"/>
    </filter>
  </defs>
  <g id="Group_3325" data-name="Group 3325" transform="translate(1423 171)">
    <g id="Group_3264" data-name="Group 3264" transform="translate(0 40)">
      <g id="XMLID_89_" transform="translate(1004 1009)">
        <path id="XMLID_90_" class="cls-1" d="M138.905,80.73H1.46A1.464,1.464,0,0,1,0,79.27V1.46A1.464,1.464,0,0,1,1.46,0H138.905a1.464,1.464,0,0,1,1.46,1.46V79.27A1.464,1.464,0,0,1,138.905,80.73Z"/>
      </g>
      <g id="Group_3263" data-name="Group 3263">
        <g class="cls-10" transform="matrix(1, 0, 0, 1, -1423, -211)">
          <path id="Path_9055-2" data-name="Path 9055" class="cls-2" d="M163.66,18.1H140.789a1.029,1.029,0,0,1-1.089-1.089V8.189A1.029,1.029,0,0,1,140.789,7.1H163.66a1.029,1.029,0,0,1,1.089,1.089v8.822A1.091,1.091,0,0,1,163.66,18.1Z" transform="translate(2387.3 1216.9)"/>
        </g>
        <text id="Email" class="cls-3" transform="translate(1111 1020)"><tspan x="0" y="0">Email</tspan></text>
        <g class="cls-9" transform="matrix(1, 0, 0, 1, -1423, -211)">
          <path id="Path_9056-2" data-name="Path 9056" class="cls-2" d="M186.031,18.1H167.189a1.029,1.029,0,0,1-1.089-1.089V8.189A1.029,1.029,0,0,1,167.189,7.1h18.841a1.029,1.029,0,0,1,1.089,1.089v8.822A1.171,1.171,0,0,1,186.031,18.1Z" transform="translate(2388.9 1216.9)"/>
        </g>
        <text id="Call" class="cls-3" transform="translate(1139 1020)"><tspan x="0" y="0">Call</tspan></text>
        <g class="cls-8" transform="matrix(1, 0, 0, 1, -1423, -211)">
          <path id="Path_9057-2" data-name="Path 9057" class="cls-2" d="M137.948,18.1H107.889a1.029,1.029,0,0,1-1.089-1.089V8.189A1.029,1.029,0,0,1,107.889,7.1h30.059a1.029,1.029,0,0,1,1.089,1.089v8.822A1.171,1.171,0,0,1,137.948,18.1Z" transform="translate(2385.2 1216.9)"/>
        </g>
        <text id="Send_SMS" data-name="Send SMS" class="cls-3" transform="translate(1076 1020)"><tspan x="0" y="0">Send SMS</tspan></text>
      </g>
    </g>
    <g id="Group_2819" data-name="Group 2819" transform="translate(1009.766 1071.774)">
      <g id="XMLID_86_">
        <g id="XMLID_87_">
          <path id="XMLID_88_" class="cls-4" d="M58.776,31.2h-50c-.511,0-.876.219-.876.438v-.146c0,.219.438.438.876.438h50c.511,0,.876-.219.876-.438v.146C59.652,31.419,59.287,31.2,58.776,31.2Z" transform="translate(-7.9 -31.2)"/>
        </g>
      </g>
      <g id="XMLID_83_" transform="translate(0 5.985)">
        <g id="XMLID_84_">
          <path id="XMLID_85_" class="cls-4" d="M58.776,39.4h-50c-.511,0-.876.219-.876.438v-.146c0,.219.438.438.876.438h50c.511,0,.876-.219.876-.438v.146C59.652,39.619,59.287,39.4,58.776,39.4Z" transform="translate(-7.9 -39.4)"/>
        </g>
      </g>
      <g id="XMLID_80_" transform="translate(0 12.044)">
        <g id="XMLID_81_">
          <path id="XMLID_82_" class="cls-4" d="M58.776,47.7h-50c-.511,0-.876.219-.876.438v-.146c0,.219.438.438.876.438h50c.511,0,.876-.219.876-.438v.146C59.652,47.846,59.287,47.7,58.776,47.7Z" transform="translate(-7.9 -47.7)"/>
        </g>
      </g>
      <g id="XMLID_77_" transform="translate(0 18.029)">
        <g id="XMLID_78_">
          <path id="XMLID_79_" class="cls-4" d="M58.776,55.9h-50c-.511,0-.876.219-.876.438v-.146c0,.219.438.438.876.438h50c.511,0,.876-.219.876-.438v.146C59.652,56.046,59.287,55.9,58.776,55.9Z" transform="translate(-7.9 -55.9)"/>
        </g>
      </g>
      <g id="XMLID_74_" transform="translate(0 24.015)">
        <g id="XMLID_75_">
          <path id="XMLID_76_" class="cls-4" d="M58.776,64.1h-50c-.511,0-.876.219-.876.438v-.146c0,.219.438.438.876.438h50c.511,0,.876-.219.876-.438v.146C59.652,64.246,59.287,64.1,58.776,64.1Z" transform="translate(-7.9 -64.1)"/>
        </g>
      </g>
      <g id="XMLID_71_" transform="translate(0 30)">
        <g id="XMLID_72_">
          <path id="XMLID_73_" class="cls-4" d="M58.776,72.3h-50c-.511,0-.876.219-.876.438v-.146c0,.219.438.438.876.438h50c.511,0,.876-.219.876-.438v.146C59.652,72.519,59.287,72.3,58.776,72.3Z" transform="translate(-7.9 -72.3)"/>
        </g>
      </g>
      <g id="XMLID_68_" transform="translate(0 35.985)">
        <g id="XMLID_69_" transform="translate(0 0)">
          <path id="XMLID_70_" class="cls-4" d="M58.776,80.5h-50c-.511,0-.876.219-.876.438v-.146c0,.219.438.438.876.438h50c.511,0,.876-.219.876-.438v.146C59.652,80.719,59.287,80.5,58.776,80.5Z" transform="translate(-7.9 -80.5)"/>
        </g>
      </g>
      <g id="XMLID_65_" transform="translate(0 41.971)">
        <g id="XMLID_66_">
          <path id="XMLID_67_" class="cls-4" d="M58.776,88.7h-50c-.511,0-.876.219-.876.438v-.146c0,.219.438.438.876.438h50c.511,0,.876-.219.876-.438v.146C59.652,88.919,59.287,88.7,58.776,88.7Z" transform="translate(-7.9 -88.7)"/>
        </g>
      </g>
      <g id="XMLID_62_" transform="translate(0 47.956)">
        <g id="XMLID_63_">
          <path id="XMLID_64_" class="cls-4" d="M58.776,96.9h-50c-.511,0-.876.219-.876.438v-.146c0,.219.438.438.876.438h50c.511,0,.876-.219.876-.438v.146C59.652,97.119,59.287,96.9,58.776,96.9Z" transform="translate(-7.9 -96.9)"/>
        </g>
      </g>
    </g>
    <g id="Group_2820" data-name="Group 2820" transform="translate(1073.124 1071.774)">
      <g id="XMLID_59_">
        <g id="XMLID_60_">
          <path id="XMLID_61_" class="cls-4" d="M117.985,31.2H95.138a.471.471,0,0,0-.438.438v-.146a.471.471,0,0,0,.438.438h22.847a.471.471,0,0,0,.438-.438v.146A.471.471,0,0,0,117.985,31.2Z" transform="translate(-94.7 -31.2)"/>
        </g>
      </g>
      <g id="XMLID_56_" transform="translate(0 5.985)">
        <g id="XMLID_57_">
          <path id="XMLID_58_" class="cls-4" d="M117.985,39.4H95.138a.471.471,0,0,0-.438.438v-.146a.471.471,0,0,0,.438.438h22.847a.471.471,0,0,0,.438-.438v.146A.471.471,0,0,0,117.985,39.4Z" transform="translate(-94.7 -39.4)"/>
        </g>
      </g>
      <g id="XMLID_53_" transform="translate(0 12.044)">
        <g id="XMLID_54_">
          <path id="XMLID_55_" class="cls-4" d="M117.985,47.7H95.138a.471.471,0,0,0-.438.438v-.146a.471.471,0,0,0,.438.438h22.847a.471.471,0,0,0,.438-.438v.146A.421.421,0,0,0,117.985,47.7Z" transform="translate(-94.7 -47.7)"/>
        </g>
      </g>
      <g id="XMLID_50_" transform="translate(0 18.029)">
        <g id="XMLID_51_">
          <path id="XMLID_52_" class="cls-4" d="M117.985,55.9H95.138a.471.471,0,0,0-.438.438v-.146a.471.471,0,0,0,.438.438h22.847a.471.471,0,0,0,.438-.438v.146A.421.421,0,0,0,117.985,55.9Z" transform="translate(-94.7 -55.9)"/>
        </g>
      </g>
      <g id="XMLID_47_" transform="translate(0 24.015)">
        <g id="XMLID_48_">
          <path id="XMLID_49_" class="cls-4" d="M117.985,64.1H95.138a.471.471,0,0,0-.438.438v-.146a.471.471,0,0,0,.438.438h22.847a.471.471,0,0,0,.438-.438v.146A.421.421,0,0,0,117.985,64.1Z" transform="translate(-94.7 -64.1)"/>
        </g>
      </g>
      <g id="XMLID_44_" transform="translate(0 30)">
        <g id="XMLID_45_">
          <path id="XMLID_46_" class="cls-4" d="M117.985,72.3H95.138a.471.471,0,0,0-.438.438v-.146a.471.471,0,0,0,.438.438h22.847a.471.471,0,0,0,.438-.438v.146A.471.471,0,0,0,117.985,72.3Z" transform="translate(-94.7 -72.3)"/>
        </g>
      </g>
      <g id="XMLID_41_" transform="translate(0 35.985)">
        <g id="XMLID_42_" transform="translate(0 0)">
          <path id="XMLID_43_" class="cls-4" d="M117.985,80.5H95.138a.471.471,0,0,0-.438.438v-.146a.471.471,0,0,0,.438.438h22.847a.471.471,0,0,0,.438-.438v.146A.471.471,0,0,0,117.985,80.5Z" transform="translate(-94.7 -80.5)"/>
        </g>
      </g>
      <g id="XMLID_38_" transform="translate(0 41.971)">
        <g id="XMLID_39_">
          <path id="XMLID_40_" class="cls-4" d="M117.985,88.7H95.138a.471.471,0,0,0-.438.438v-.146a.471.471,0,0,0,.438.438h22.847a.471.471,0,0,0,.438-.438v.146A.471.471,0,0,0,117.985,88.7Z" transform="translate(-94.7 -88.7)"/>
        </g>
      </g>
      <g id="XMLID_35_" transform="translate(0 47.956)">
        <g id="XMLID_36_">
          <path id="XMLID_37_" class="cls-4" d="M117.985,96.9H95.138a.471.471,0,0,0-.438.438v-.146a.471.471,0,0,0,.438.438h22.847a.471.471,0,0,0,.438-.438v.146A.471.471,0,0,0,117.985,96.9Z" transform="translate(-94.7 -96.9)"/>
        </g>
      </g>
    </g>
    <g id="Group_2821" data-name="Group 2821" transform="translate(1102.394 1071.774)">
      <g id="XMLID_32_">
        <g id="XMLID_33_">
          <path id="XMLID_34_" class="cls-4" d="M171.515,31.2H135.457c-.365,0-.657.219-.657.438v-.146c0,.219.292.438.657.438h36.058c.365,0,.657-.219.657-.438v.146C172.172,31.419,171.88,31.2,171.515,31.2Z" transform="translate(-134.8 -31.2)"/>
        </g>
      </g>
      <g id="XMLID_29_" transform="translate(0 5.985)">
        <g id="XMLID_30_">
          <path id="XMLID_31_" class="cls-4" d="M171.515,39.4H135.457c-.365,0-.657.219-.657.438v-.146c0,.219.292.438.657.438h36.058c.365,0,.657-.219.657-.438v.146C172.172,39.619,171.88,39.4,171.515,39.4Z" transform="translate(-134.8 -39.4)"/>
        </g>
      </g>
      <g id="XMLID_26_" transform="translate(0 12.044)">
        <g id="XMLID_27_">
          <path id="XMLID_28_" class="cls-4" d="M171.515,47.7H135.457c-.365,0-.657.219-.657.438v-.146c0,.219.292.438.657.438h36.058c.365,0,.657-.219.657-.438v.146C172.172,47.846,171.88,47.7,171.515,47.7Z" transform="translate(-134.8 -47.7)"/>
        </g>
      </g>
      <g id="XMLID_23_" transform="translate(0 18.029)">
        <g id="XMLID_24_">
          <path id="XMLID_25_" class="cls-4" d="M171.515,55.9H135.457c-.365,0-.657.219-.657.438v-.146c0,.219.292.438.657.438h36.058c.365,0,.657-.219.657-.438v.146C172.172,56.046,171.88,55.9,171.515,55.9Z" transform="translate(-134.8 -55.9)"/>
        </g>
      </g>
      <g id="XMLID_20_" transform="translate(0 24.015)">
        <g id="XMLID_21_">
          <path id="XMLID_22_" class="cls-4" d="M171.515,64.1H135.457c-.365,0-.657.219-.657.438v-.146c0,.219.292.438.657.438h36.058c.365,0,.657-.219.657-.438v.146C172.172,64.246,171.88,64.1,171.515,64.1Z" transform="translate(-134.8 -64.1)"/>
        </g>
      </g>
      <g id="XMLID_17_" transform="translate(0 30)">
        <g id="XMLID_18_">
          <path id="XMLID_19_" class="cls-4" d="M171.515,72.3H135.457c-.365,0-.657.219-.657.438v-.146c0,.219.292.438.657.438h36.058c.365,0,.657-.219.657-.438v.146C172.172,72.519,171.88,72.3,171.515,72.3Z" transform="translate(-134.8 -72.3)"/>
        </g>
      </g>
      <g id="XMLID_14_" transform="translate(0 35.985)">
        <g id="XMLID_15_" transform="translate(0 0)">
          <path id="XMLID_16_" class="cls-4" d="M171.515,80.5H135.457c-.365,0-.657.219-.657.438v-.146c0,.219.292.438.657.438h36.058c.365,0,.657-.219.657-.438v.146C172.172,80.719,171.88,80.5,171.515,80.5Z" transform="translate(-134.8 -80.5)"/>
        </g>
      </g>
      <g id="XMLID_11_" transform="translate(0 41.971)">
        <g id="XMLID_12_">
          <path id="XMLID_13_" class="cls-4" d="M171.515,88.7H135.457c-.365,0-.657.219-.657.438v-.146c0,.219.292.438.657.438h36.058c.365,0,.657-.219.657-.438v.146C172.172,88.919,171.88,88.7,171.515,88.7Z" transform="translate(-134.8 -88.7)"/>
        </g>
      </g>
      <g id="XMLID_8_" transform="translate(0 47.956)">
        <g id="XMLID_9_">
          <path id="XMLID_10_" class="cls-4" d="M171.515,96.9H135.457c-.365,0-.657.219-.657.438v-.146c0,.219.292.438.657.438h36.058c.365,0,.657-.219.657-.438v.146C172.172,97.119,171.88,96.9,171.515,96.9Z" transform="translate(-134.8 -96.9)"/>
        </g>
      </g>
    </g>
    <g id="XMLID_1_" transform="translate(1007.796 1051.117)">
      <g id="XMLID_6_">
        <circle id="XMLID_7_" class="cls-5" cx="1.387" cy="1.387" r="1.387"/>
      </g>
      <g id="XMLID_4_" transform="translate(4.891)">
        <circle id="XMLID_5_" class="cls-6" cx="1.387" cy="1.387" r="1.387"/>
      </g>
      <g id="XMLID_2_" transform="translate(9.708)">
        <circle id="XMLID_3_" class="cls-7" cx="1.387" cy="1.387" r="1.387"/>
      </g>
    </g>
  </g>
</svg>
