<svg xmlns="http://www.w3.org/2000/svg" viewBox="1796 3779 50 30">
  <defs>
    <style>
      .cls-1 {
        fill: #fff;
      }

      .cls-2, .cls-5 {
        fill: #565b73;
      }

      .cls-3 {
        fill: #156bb3;
      }

      .cls-4, .cls-5 {
        stroke: none;
      }
    </style>
  </defs>
  <g id="Group_3006" data-name="Group 3006" transform="translate(1423 -31)">
    <g id="Path_10512" data-name="Path 10512" class="cls-1" transform="translate(373 3810)">
      <path class="cls-4" d="M 48 29.875 L 2 29.875 C 0.9661200046539307 29.875 0.125 29.03388023376465 0.125 28 L 0.125 2 C 0.125 0.9661200046539307 0.9661200046539307 0.125 2 0.125 L 48 0.125 C 49.03387832641602 0.125 49.875 0.9661200046539307 49.875 2 L 49.875 28 C 49.875 29.03388023376465 49.03387832641602 29.875 48 29.875 Z"/>
      <path class="cls-5" d="M 48 29.75 C 48.96495056152344 29.75 49.75 28.96495056152344 49.75 28 L 49.75 2 C 49.75 1.03505003452301 48.96495056152344 0.25 48 0.25 L 2 0.25 C 1.03505003452301 0.25 0.25 1.03505003452301 0.25 2 L 0.25 28 C 0.25 28.96495056152344 1.03505003452301 29.75 2 29.75 L 48 29.75 M 48 30 L 2 30 C 0.8954300284385681 30 -3.552713678800501e-15 29.10457038879395 -3.552713678800501e-15 28 L -3.552713678800501e-15 2 C -3.552713678800501e-15 0.8954300284385681 0.8954300284385681 -1.77635683940025e-15 2 -1.77635683940025e-15 L 48 -1.77635683940025e-15 C 49.10456848144531 -1.77635683940025e-15 50 0.8954300284385681 50 2 L 50 28 C 50 29.10457038879395 49.10456848144531 30 48 30 Z"/>
    </g>
    <g id="Group_2968" data-name="Group 2968" transform="translate(376 3820)">
      <path id="Path_10505" data-name="Path 10505" class="cls-2" d="M4.7,8.267.783,6.409A1.125,1.125,0,0,1,0,5.43v-.1a1.064,1.064,0,0,1,.685-.978L4.6,2.5c.2-.1.293-.2.489-.2a.7.7,0,0,1,.685.783.736.736,0,0,1-.489.685L1.761,5.333,5.283,6.9a.775.775,0,0,1,.489.783.651.651,0,0,1-.783.685A.359.359,0,0,1,4.7,8.267Z" transform="translate(0 -0.05)"/>
      <path id="Path_10506" data-name="Path 10506" class="cls-2" d="M7.1,9.978,11.7.391A.536.536,0,0,1,12.283,0a.669.669,0,0,1,.685.685c0,.1,0,.293-.1.293l-4.6,9.587a.536.536,0,0,1-.587.391A.669.669,0,0,1,7,10.272.359.359,0,0,1,7.1,9.978Z" transform="translate(-0.152 0)"/>
      <path id="Path_10507" data-name="Path 10507" class="cls-3" d="M12.4,8.341l2.837-6.457A1.058,1.058,0,0,1,16.309,1.2h.1a1.2,1.2,0,0,1,1.076.685L20.32,8.341a.588.588,0,0,1,.1.391.877.877,0,0,1-.88.88,1.124,1.124,0,0,1-.88-.587L18.07,7.754H14.45l-.489,1.174a.94.94,0,0,1-.88.587.877.877,0,0,1-.88-.88C12.3,8.537,12.3,8.439,12.4,8.341Zm5.087-2.348L16.309,3.254,15.135,5.993Z" transform="translate(-0.265 -0.026)"/>
      <path id="Path_10508" data-name="Path 10508" class="cls-3" d="M22.1,2.18a.877.877,0,0,1,.88-.88h2.446a2.809,2.809,0,0,1,3.13,2.837h0c0,1.859-1.467,2.935-3.326,2.935h-1.37V8.735a.88.88,0,1,1-1.761,0V2.18Zm3.228,3.228A1.348,1.348,0,0,0,26.8,4.137h0a1.293,1.293,0,0,0-1.467-1.272h-1.37V5.409Z" transform="translate(-0.48 -0.028)"/>
      <path id="Path_10509" data-name="Path 10509" class="cls-3" d="M30.2,2.08a.88.88,0,1,1,1.761,0V8.635a.88.88,0,1,1-1.761,0Z" transform="translate(-0.657 -0.026)"/>
      <path id="Path_10510" data-name="Path 10510" class="cls-3" d="M33.693,8.876a.592.592,0,0,1-.293-.587.669.669,0,0,1,.685-.685.588.588,0,0,1,.391.1,3.118,3.118,0,0,0,1.663.587c.489,0,.783-.2.783-.489h0c0-.391-.587-.489-1.272-.685-.88-.293-1.859-.685-1.859-1.859h0c0-1.272,1.076-1.957,2.348-1.957a4.453,4.453,0,0,1,1.957.489.655.655,0,0,1,.391.685.669.669,0,0,1-.685.685.359.359,0,0,1-.293-.1,2.675,2.675,0,0,0-1.37-.391c-.391,0-.685.2-.685.391h0c0,.391.587.489,1.272.783.88.293,1.859.685,1.859,1.859h0c0,1.37-1.076,2.054-2.446,2.054A6.177,6.177,0,0,1,33.693,8.876Z" transform="translate(-0.726 -0.072)"/>
      <path id="Path_10511" data-name="Path 10511" class="cls-2" d="M41.276,2.4l3.913,1.859a1.019,1.019,0,0,1,.685.978v.1a1.064,1.064,0,0,1-.685.978L41.276,8.167a.588.588,0,0,1-.391.1.7.7,0,0,1-.685-.783.736.736,0,0,1,.489-.685l3.522-1.565L40.689,3.667a.775.775,0,0,1-.489-.783.651.651,0,0,1,.783-.685C40.983,2.3,41.178,2.4,41.276,2.4Z" transform="translate(-0.874 -0.047)"/>
    </g>
  </g>
</svg>
