<svg xmlns="http://www.w3.org/2000/svg" viewBox="792 1200 152.911 90">
  <defs>
    <style>
      .cls-1 {
        fill: #565b73;
      }

      .cls-2 {
        fill: #787c8e;
      }

      .cls-3 {
        fill: #ee5d55;
      }

      .cls-4 {
        fill: #fbbc32;
      }

      .cls-5 {
        fill: #4eb44f;
      }

      .cls-6 {
        fill: none;
        stroke: #787c8e;
        stroke-miterlimit: 10;
      }

      .cls-7 {
        fill: #156bb3;
      }
    </style>
  </defs>
  <g id="Group_2710" data-name="Group 2710" transform="translate(-970 328)">
    <g id="Group_2709" data-name="Group 2709" transform="translate(1762 872)">
      <g id="XMLID_67_" transform="translate(0 17.394)">
        <path id="XMLID_68_" class="cls-1" d="M99.719,96.373H1.3a1.307,1.307,0,0,1-1.3-1.3V28a1.307,1.307,0,0,1,1.3-1.3H99.719a1.307,1.307,0,0,1,1.3,1.3V95.069A1.307,1.307,0,0,1,99.719,96.373Z" transform="translate(0 -26.7)"/>
      </g>
      <g id="XMLID_58_" transform="translate(35.39 54.87)">
        <g id="XMLID_65_">
          <path id="XMLID_66_" class="cls-2" d="M97.968,84.2H55.082a.753.753,0,0,0-.782.782v-.261a.753.753,0,0,0,.782.782H97.968a.753.753,0,0,0,.782-.782v.261A.841.841,0,0,0,97.968,84.2Z" transform="translate(-54.3 -84.2)"/>
        </g>
      </g>
      <g id="XMLID_55_" transform="translate(38.258 60.606)">
        <g id="XMLID_56_">
          <path id="XMLID_57_" class="cls-2" d="M102.3,93H59.482a.753.753,0,0,0-.782.782v-.261a.753.753,0,0,0,.782.782h42.886a.753.753,0,0,0,.782-.782v.261A.906.906,0,0,0,102.3,93Z" transform="translate(-58.7 -93)"/>
        </g>
      </g>
      <g id="XMLID_52_" transform="translate(43.798 66.341)">
        <g id="XMLID_53_">
          <path id="XMLID_54_" class="cls-2" d="M110.8,101.8H67.982a.753.753,0,0,0-.782.782v-.261a.753.753,0,0,0,.782.782h42.886a.753.753,0,0,0,.782-.782v.261A.906.906,0,0,0,110.8,101.8Z" transform="translate(-67.2 -101.8)"/>
        </g>
      </g>
      <g id="XMLID_49_" transform="translate(1.304 30.234)">
        <g id="XMLID_50_">
          <path id="XMLID_51_" class="cls-2" d="M24.812,46.4H2.391c-.2,0-.391.326-.391.782v-.261c0,.456.2.782.391.782h22.42c.2,0,.391-.326.391-.782v.261C25.2,46.726,25.072,46.4,24.812,46.4Z" transform="translate(-2 -46.4)"/>
        </g>
      </g>
      <g id="XMLID_46_" transform="translate(1.304 35.904)">
        <g id="XMLID_47_">
          <path id="XMLID_48_" class="cls-2" d="M24.812,55.1H2.391c-.2,0-.391.326-.391.782v-.2c0,.456.2.782.391.782h22.42c.2,0,.391-.326.391-.782v.261C25.2,55.491,25.072,55.1,24.812,55.1Z" transform="translate(-2 -55.1)"/>
        </g>
      </g>
      <g id="XMLID_43_" transform="translate(1.304 41.64)">
        <g id="XMLID_44_">
          <path id="XMLID_45_" class="cls-2" d="M24.812,63.9H2.391c-.2,0-.391.326-.391.782v-.261c0,.456.2.782.391.782h22.42c.2,0,.391-.326.391-.782v.261C25.2,64.226,25.072,63.9,24.812,63.9Z" transform="translate(-2 -63.9)"/>
        </g>
      </g>
      <g id="XMLID_40_" transform="translate(1.304 47.31)">
        <g id="XMLID_41_">
          <path id="XMLID_42_" class="cls-2" d="M24.812,72.6H2.391c-.2,0-.391.326-.391.782v-.261c0,.456.2.782.391.782h22.42c.2,0,.391-.326.391-.782v.261C25.2,72.991,25.072,72.6,24.812,72.6Z" transform="translate(-2 -72.6)"/>
        </g>
      </g>
      <g id="XMLID_37_" transform="translate(1.304 53.045)">
        <g id="XMLID_38_">
          <path id="XMLID_39_" class="cls-2" d="M24.812,81.4H2.391c-.2,0-.391.326-.391.782v-.261c0,.456.2.782.391.782h22.42c.2,0,.391-.326.391-.782v.261C25.2,81.726,25.072,81.4,24.812,81.4Z" transform="translate(-2 -81.4)"/>
        </g>
      </g>
      <g id="XMLID_34_" transform="translate(1.304 58.716)">
        <g id="XMLID_35_">
          <path id="XMLID_36_" class="cls-2" d="M24.812,90.1H2.391c-.2,0-.391.326-.391.782v-.261c0,.456.2.782.391.782h22.42c.2,0,.391-.326.391-.782v.261C25.2,90.491,25.072,90.1,24.812,90.1Z" transform="translate(-2 -90.1)"/>
        </g>
      </g>
      <g id="XMLID_31_" transform="translate(1.304 64.451)">
        <g id="XMLID_32_">
          <path id="XMLID_33_" class="cls-2" d="M24.812,98.9H2.391c-.2,0-.391.326-.391.782v-.261c0,.456.2.782.391.782h22.42c.2,0,.391-.326.391-.782v.261C25.2,99.226,25.072,98.9,24.812,98.9Z" transform="translate(-2 -98.9)"/>
        </g>
      </g>
      <g id="XMLID_28_" transform="translate(1.304 70.121)">
        <g id="XMLID_29_">
          <path id="XMLID_30_" class="cls-2" d="M24.812,107.6H2.391c-.2,0-.391.326-.391.782v-.261c0,.456.2.782.391.782h22.42c.2,0,.391-.326.391-.782v.261C25.2,107.926,25.072,107.6,24.812,107.6Z" transform="translate(-2 -107.6)"/>
        </g>
      </g>
      <g id="XMLID_21_" transform="translate(1.304 21.826)">
        <g id="XMLID_26_">
          <ellipse id="XMLID_27_" class="cls-3" cx="1.238" cy="1.238" rx="1.238" ry="1.238"/>
        </g>
        <g id="XMLID_24_" transform="translate(4.302)">
          <ellipse id="XMLID_25_" class="cls-4" cx="1.238" cy="1.238" rx="1.238" ry="1.238"/>
        </g>
        <g id="XMLID_22_" transform="translate(8.668)">
          <ellipse id="XMLID_23_" class="cls-5" cx="1.238" cy="1.238" rx="1.238" ry="1.238"/>
        </g>
      </g>
      <g id="XMLID_19_" transform="translate(27.309 18.111)">
        <rect id="XMLID_20_" class="cls-2" width="0.782" height="69.217"/>
      </g>
      <g id="XMLID_14_" transform="translate(31.675 26.193)">
        <g id="XMLID_17_">
          <path id="XMLID_18_" class="cls-2" d="M82.491,40.2H49.382a.753.753,0,0,0-.782.782v-.261a.753.753,0,0,0,.782.782H82.491a.753.753,0,0,0,.782-.782v.261A.841.841,0,0,0,82.491,40.2Z" transform="translate(-48.6 -40.2)"/>
        </g>
        <g id="XMLID_15_" transform="translate(36.694)">
          <path id="XMLID_16_" class="cls-2" d="M119.108,40.2H105.682a.753.753,0,0,0-.782.782v-.261a.753.753,0,0,0,.782.782h13.426a.753.753,0,0,0,.782-.782v.261A.792.792,0,0,0,119.108,40.2Z" transform="translate(-104.9 -40.2)"/>
        </g>
      </g>
      <g id="XMLID_11_" transform="translate(35.912 31.928)">
        <g id="XMLID_12_">
          <path id="XMLID_13_" class="cls-2" d="M98.768,49H55.882a.753.753,0,0,0-.782.782v-.261a.753.753,0,0,0,.782.782H98.768a.753.753,0,0,0,.782-.782v.261A.793.793,0,0,0,98.768,49Z" transform="translate(-55.1 -49)"/>
        </g>
      </g>
      <g id="XMLID_8_" transform="translate(37.215 37.664)">
        <g id="XMLID_9_">
          <path id="XMLID_10_" class="cls-2" d="M100.7,57.8H57.882a.753.753,0,0,0-.782.782v-.261a.753.753,0,0,0,.782.782H100.7a.753.753,0,0,0,.782-.782v.261A.793.793,0,0,0,100.7,57.8Z" transform="translate(-57.1 -57.8)"/>
        </g>
      </g>
      <g id="XMLID_5_" transform="translate(41.582 43.399)">
        <g id="XMLID_6_">
          <path id="XMLID_7_" class="cls-2" d="M107.468,66.6H64.582a.753.753,0,0,0-.782.782v-.261a.753.753,0,0,0,.782.782h42.886a.753.753,0,0,0,.782-.782v.261A.841.841,0,0,0,107.468,66.6Z" transform="translate(-63.8 -66.6)"/>
        </g>
      </g>
      <g id="XMLID_2_" transform="translate(44.906 49.135)">
        <g id="XMLID_3_">
          <path id="XMLID_4_" class="cls-2" d="M112.5,75.4H69.682a.753.753,0,0,0-.782.782v-.261a.753.753,0,0,0,.782.782h42.886a.753.753,0,0,0,.782-.782v.261A.906.906,0,0,0,112.5,75.4Z" transform="translate(-68.9 -75.4)"/>
        </g>
      </g>
      <path id="Path_8635" data-name="Path 8635" class="cls-6" d="M122.5,33.256V19.5a1.307,1.307,0,0,1,1.3-1.3H161.28" transform="translate(-42.66 -6.346)"/>
      <line id="Line_19" data-name="Line 19" class="cls-6" x2="54.422" transform="translate(79.84 43.856)"/>
      <path id="Path_8636" data-name="Path 8636" class="cls-6" d="M122.5,102.6v13.752a1.307,1.307,0,0,0,1.3,1.3h38.128" transform="translate(-42.66 -35.737)"/>
      <g id="Group_2707" data-name="Group 2707" transform="translate(116.875 0)">
        <path id="Path_8637" data-name="Path 8637" class="cls-1" d="M180.676,16.334a1.04,1.04,0,1,0,1.76,1.108v-.065a5.311,5.311,0,0,0-1.5-6.974,1.031,1.031,0,0,0-1.173,1.695A3.205,3.205,0,0,1,180.676,16.334Z" transform="translate(-179.322 -3.568)"/>
        <path id="Path_8638" data-name="Path 8638" class="cls-7" d="M189.541,19.178a1.159,1.159,0,0,0,.521-.456,10.883,10.883,0,0,0-2.02-12.774,1.043,1.043,0,0,0-1.5.065,1.023,1.023,0,0,0,0,1.434,8.794,8.794,0,0,1,1.629,10.3,1.048,1.048,0,0,0,.391,1.434A1.268,1.268,0,0,0,189.541,19.178Z" transform="translate(-181.735 -1.979)"/>
        <path id="Path_8639" data-name="Path 8639" class="cls-1" d="M192.943.33a1.1,1.1,0,0,0,0,1.5,14.19,14.19,0,0,1,2.542,16.164,1.051,1.051,0,1,0,1.825,1.043c0-.065.065-.065.065-.13A16.263,16.263,0,0,0,194.442.33,1.042,1.042,0,0,0,192.943.33Z" transform="translate(-183.964 -0.012)"/>
      </g>
      <path id="Path_8640" data-name="Path 8640" class="cls-1" d="M183.521,116.965l-.521.521v12.644l.587.587H201.9l.587-.587V117.487l-.587-.587H183.456v.065Zm9.19,8.212-7.691-7.039H200.4Zm-3.78-1.955-4.823,5.41V118.79Zm.847.782,2.868,2.737L195.514,124l4.953,5.605H184.76Zm6.648-.782,4.823-4.432v9.842Z" transform="translate(-63.728 -40.717)"/>
      <g id="Group_2708" data-name="Group 2708" transform="translate(133.415 35.252)">
        <path id="Path_8641" data-name="Path 8641" class="cls-7" d="M221.32,54.1H207.633a2.921,2.921,0,0,0-2.933,2.933v8.342a2.921,2.921,0,0,0,2.933,2.933h1.043v2.346a.717.717,0,0,0,.391.652.488.488,0,0,0,.326.065.926.926,0,0,0,.391-.13l3.976-2.868h7.5a2.921,2.921,0,0,0,2.933-2.933V57.033A2.789,2.789,0,0,0,221.32,54.1Zm1.564,11.275a1.586,1.586,0,0,1-1.564,1.564h-7.756a.926.926,0,0,0-.391.13l-3.063,2.216V67.591a.723.723,0,0,0-.717-.717h-1.76a1.586,1.586,0,0,1-1.564-1.564V57.033a1.586,1.586,0,0,1,1.564-1.564H221.32a1.586,1.586,0,0,1,1.564,1.564v8.342Z" transform="translate(-204.7 -54.1)"/>
        <path id="Path_8642" data-name="Path 8642" class="cls-1" d="M222.25,60.317a.723.723,0,0,1-.717.717h-9.516a.717.717,0,1,1,0-1.434h9.516A.766.766,0,0,1,222.25,60.317Z" transform="translate(-206.998 -56.015)"/>
        <path id="Path_8643" data-name="Path 8643" class="cls-1" d="M222.25,64.317a.723.723,0,0,1-.717.717h-9.516a.717.717,0,1,1,0-1.434h9.516A.766.766,0,0,1,222.25,64.317Z" transform="translate(-206.998 -57.408)"/>
        <path id="Path_8644" data-name="Path 8644" class="cls-1" d="M222.25,68.317a.723.723,0,0,1-.717.717h-9.516a.717.717,0,0,1,0-1.434h9.516A.766.766,0,0,1,222.25,68.317Z" transform="translate(-206.998 -58.801)"/>
      </g>
    </g>
  </g>
</svg>
