<svg xmlns="http://www.w3.org/2000/svg" viewBox="2186 3049 52.906 50">
  <defs>
    <style>
      .cls-1 {
        fill: #565b73;
      }

      .cls-2 {
        fill: #156bb3;
      }
    </style>
  </defs>
  <g id="Group_3104" data-name="Group 3104" transform="translate(2186 3049.1)">
    <path id="Path_11118" data-name="Path 11118" class="cls-1" d="M45.878,52.483A1.216,1.216,0,1,0,44.159,54.2L48.8,58.848H39.031a13.757,13.757,0,0,0-12.548,8.144,13.822,13.822,0,0,0-12.548-8.144h-9.8l4.615-4.675a1.216,1.216,0,1,0-1.689-1.749l-.03.03L.362,59.179a1.2,1.2,0,0,0,0,1.719l6.7,6.7a1.216,1.216,0,1,0,1.749-1.689l-.03-.03L4.132,61.23h9.773A11.367,11.367,0,0,1,25.246,72.572V85.12a.664.664,0,0,0,.03.241c.03.09.03.151.06.241a.756.756,0,0,0,.121.211c.03.03.06.06.06.09s.06.06.09.09l.09.09a.8.8,0,0,0,.3.181.568.568,0,0,0,.241.06,1.362,1.362,0,0,0,.6-.03,1.617,1.617,0,0,0,.332-.151c.03-.03.06-.06.09-.06a.8.8,0,0,0,.151-.181c.03-.03.06-.06.06-.09a1.422,1.422,0,0,0,.181-.452.493.493,0,0,0,0-.211V72.572A11.367,11.367,0,0,1,39,61.23h9.773l-4.645,4.645a1.216,1.216,0,1,0,1.689,1.749l.03-.03,6.7-6.7a1.2,1.2,0,0,0,0-1.719Z" transform="translate(0 -36.446)"/>
    <path id="Path_11119" data-name="Path 11119" class="cls-2" d="M77.224,8.949a4.524,4.524,0,0,0,0-9.049A4.557,4.557,0,0,0,72.7,4.424,4.557,4.557,0,0,0,77.224,8.949Zm0-6.606a2.111,2.111,0,1,1-2.111,2.111A2.1,2.1,0,0,1,77.224,2.343Z" transform="translate(-50.771)"/>
    <path id="Path_11120" data-name="Path 11120" class="cls-2" d="M57.53,41.359a1.226,1.226,0,0,0,.814-1.508v-.03a7.475,7.475,0,0,1-.332-2.2,7.31,7.31,0,0,1,3.77-6.395,5.973,5.973,0,0,0,7.118,0,7.334,7.334,0,0,1,3.77,6.395,7.475,7.475,0,0,1-.332,2.2,1.211,1.211,0,1,0,2.292.784v-.03a9.616,9.616,0,0,0,.452-2.956,9.736,9.736,0,0,0-5.852-8.928,1.25,1.25,0,0,0-.483-.09,1.208,1.208,0,0,0-.875.362,3.568,3.568,0,0,1-5.067,0,1.154,1.154,0,0,0-1.327-.241A9.8,9.8,0,0,0,55.6,37.649a9.616,9.616,0,0,0,.452,2.956A1.148,1.148,0,0,0,57.53,41.359Z" transform="translate(-38.829 -20.043)"/>
  </g>
</svg>
