<svg xmlns="http://www.w3.org/2000/svg" viewBox="2186 2956 37.917 50">
  <defs>
    <style>
      .cls-1 {
        fill: #fff;
      }

      .cls-2 {
        fill: #156bb3;
      }

      .cls-3 {
        fill: #565b73;
      }
    </style>
  </defs>
  <g id="XMLID_47_" transform="translate(2155.9 2956)">
    <g id="XMLID_53_" transform="translate(30.933 20.833)">
      <path id="XMLID_66_" class="cls-1" d="M66.333,20.833V11.042A.984.984,0,0,0,65.292,10H31.542A.984.984,0,0,0,30.5,11.042v9.792c0,10.625,17.917,17.292,17.917,17.292S66.333,31.458,66.333,20.833Z" transform="translate(-30.5 -10)"/>
      <g id="XMLID_55_" transform="translate(9.583 3.542)">
        <g id="XMLID_61_" transform="translate(3.958)">
          <path id="XMLID_65_" class="cls-2" d="M3.333,0A3.333,3.333,0,1,1,0,3.333,3.333,3.333,0,0,1,3.333,0Z" transform="translate(1.042 1.042)"/>
          <path id="XMLID_62_" class="cls-3" d="M41.375,20.45A4.4,4.4,0,0,1,37,16.075,4.272,4.272,0,0,1,41.375,11.7a4.375,4.375,0,0,1,0,8.75Zm0-6.875a2.407,2.407,0,0,0-2.5,2.5,2.5,2.5,0,0,0,5,0A2.533,2.533,0,0,0,41.375,13.575Z" transform="translate(-37 -11.7)"/>
        </g>
        <g id="XMLID_56_" transform="translate(0 6.875)">
          <path id="XMLID_60_" class="cls-2" d="M35.5,22.9a7.5,7.5,0,1,1,15,0Z" transform="translate(-34.667 -14.567)"/>
          <path id="XMLID_57_" class="cls-3" d="M51.767,24.167H35.1v-.833a8.333,8.333,0,1,1,16.667,0ZM36.975,22.5H49.892a6.52,6.52,0,0,0-12.917,0Z" transform="translate(-35.1 -15)"/>
        </g>
      </g>
    </g>
    <path id="XMLID_48_" class="cls-3" d="M65.725,20H64.267V15.208a15.208,15.208,0,1,0-30.417,0v4.583H31.975A1.924,1.924,0,0,0,30.1,21.875v9.792c0,11.042,17.708,17.917,18.542,18.125l.417.208.417-.208c.833-.208,18.542-7.083,18.542-18.125V21.875A2.653,2.653,0,0,0,65.725,20ZM35.308,15.208a13.542,13.542,0,0,1,27.083,0v4.583h-.833v-3.75c0-7.5-5.625-13.542-12.5-13.542s-12.5,6.042-12.5,13.542v3.75h-1.25ZM59.683,20H38.017V16.042c0-6.458,4.792-11.667,10.833-11.667S59.683,9.583,59.683,16.042V20Zm6.042,11.667c0,9.167-14.583,15.417-16.875,16.25-2.292-1.042-16.875-7.292-16.875-16.25V21.875c0-.208,0-.208.208-.208H65.725a.2.2,0,0,1,.208.208v9.792Z" transform="translate(0)"/>
  </g>
</svg>
