<svg xmlns="http://www.w3.org/2000/svg" viewBox="1796 2565 35.781 50">
  <defs>
    <style>
      .cls-1 {
        fill: none;
      }

      .cls-2 {
        fill: #156bb3;
      }

      .cls-3 {
        fill: #565b73;
      }
    </style>
  </defs>
  <g id="Group_2875" data-name="Group 2875" transform="translate(1796 2565)">
    <rect id="Rectangle_1362" data-name="Rectangle 1362" class="cls-1" width="0.469" height="0.469" transform="translate(26.563 30.313)"/>
    <rect id="Rectangle_1363" data-name="Rectangle 1363" class="cls-1" width="18.438" height="2.344" transform="translate(8.594 7.5)"/>
    <rect id="Rectangle_1364" data-name="Rectangle 1364" class="cls-1" width="0.469" height="0.469" transform="translate(20.625 30.313)"/>
    <rect id="Rectangle_1365" data-name="Rectangle 1365" class="cls-1" width="0.469" height="0.469" transform="translate(14.531 30.313)"/>
    <rect id="Rectangle_1366" data-name="Rectangle 1366" class="cls-1" width="0.469" height="0.469" transform="translate(8.594 30.313)"/>
    <path id="Path_9065" data-name="Path 9065" class="cls-1" d="M1.5,46.656H32.438V1.5H1.5Zm9.219-15.469a1.232,1.232,0,0,1-1.25,1.25H6.5a1.232,1.232,0,0,1-1.25-1.25V28.219a1.232,1.232,0,0,1,1.25-1.25H9.469a1.232,1.232,0,0,1,1.25,1.25Zm5.938,0a1.232,1.232,0,0,1-1.25,1.25H12.594a1.232,1.232,0,0,1-1.25-1.25V28.219a1.232,1.232,0,0,1,1.25-1.25h2.969a1.232,1.232,0,0,1,1.25,1.25v2.969Zm5.938,0a1.232,1.232,0,0,1-1.25,1.25H18.375a1.232,1.232,0,0,1-1.25-1.25V28.219a1.232,1.232,0,0,1,1.25-1.25h2.969a1.232,1.232,0,0,1,1.25,1.25Zm6.094,0a1.232,1.232,0,0,1-1.25,1.25H24.469a1.232,1.232,0,0,1-1.25-1.25V28.219a1.232,1.232,0,0,1,1.25-1.25h2.969a1.232,1.232,0,0,1,1.25,1.25ZM5.406,5.406a1.232,1.232,0,0,1,1.25-1.25H27.438a1.232,1.232,0,0,1,1.25,1.25v4.688a1.232,1.232,0,0,1-1.25,1.25H6.5a1.114,1.114,0,0,1-1.094-1.25Z" transform="translate(0.844 0.844)"/>
    <path id="Path_9066" data-name="Path 9066" class="cls-2" d="M8.119,17.8H5.15A1.232,1.232,0,0,0,3.9,19.05v2.969a1.232,1.232,0,0,0,1.25,1.25H8.119a1.232,1.232,0,0,0,1.25-1.25V19.05A1.344,1.344,0,0,0,8.119,17.8Zm-1.25,2.969H6.4V20.3h.469Z" transform="translate(2.194 10.012)"/>
    <path id="Path_9067" data-name="Path 9067" class="cls-2" d="M11.862,17.8H9.05A1.232,1.232,0,0,0,7.8,19.05v2.969a1.232,1.232,0,0,0,1.25,1.25h2.969a1.232,1.232,0,0,0,1.25-1.25V19.05A1.661,1.661,0,0,0,11.862,17.8Zm-1.25,2.969h-.469V20.3h.469Z" transform="translate(4.388 10.012)"/>
    <path id="Path_9068" data-name="Path 9068" class="cls-2" d="M19.619,17.8H16.65a1.232,1.232,0,0,0-1.25,1.25v2.969a1.232,1.232,0,0,0,1.25,1.25h2.969a1.232,1.232,0,0,0,1.25-1.25V19.05A1.344,1.344,0,0,0,19.619,17.8Zm-1.25,2.969H17.9V20.3h.469Z" transform="translate(8.663 10.012)"/>
    <path id="Path_9069" data-name="Path 9069" class="cls-2" d="M15.819,17.8H12.85a1.232,1.232,0,0,0-1.25,1.25v2.969a1.232,1.232,0,0,0,1.25,1.25h2.969a1.232,1.232,0,0,0,1.25-1.25V19.05C16.913,18.425,16.444,17.8,15.819,17.8Zm-1.25,2.969H14.1V20.3h.469Z" transform="translate(6.525 10.012)"/>
    <path id="Path_9070" data-name="Path 9070" class="cls-3" d="M34.531,0H1.25A1.15,1.15,0,0,0,0,1.25v47.5A1.232,1.232,0,0,0,1.25,50H34.531a1.232,1.232,0,0,0,1.25-1.25V1.25A1.232,1.232,0,0,0,34.531,0Zm-1.25,47.5H2.344V2.344H33.281Z"/>
    <path id="Path_9071" data-name="Path 9071" class="cls-2" d="M5.094,10.387H25.875a1.232,1.232,0,0,0,1.25-1.25V4.45a1.232,1.232,0,0,0-1.25-1.25H5.094A1.208,1.208,0,0,0,4,4.45V9.137A1.114,1.114,0,0,0,5.094,10.387ZM6.344,5.7H24.781V8.044H6.344Z" transform="translate(2.25 1.8)"/>
  </g>
</svg>
