<svg xmlns="http://www.w3.org/2000/svg" xml:space="preserve" width="124px" height="40px" style="shape-rendering:geometricPrecision; text-rendering:geometricPrecision; image-rendering:optimizeQuality; fill-rule:evenodd; clip-rule:evenodd"
viewBox="0 0 108.266 34.965"
 xmlns:xlink="http://www.w3.org/1999/xlink">
 <defs>
  <style type="text/css">
   <![CDATA[
    .fil0 {fill:white;fill-rule:nonzero}
   ]]>
  </style>
 </defs>
 <g id="Layer_x0020_1">
  <metadata id="CorelCorpID_0Corel-Layer"/>
  <path id="_388863184" class="fil0" d="M0.17035 13.4411l38.4298 -13.4277 0 -0.00103242c0.111502,-0.039232 0.236424,0.0206484 0.274624,0.133182 0.00825937,0.0237457 0.0123891,0.0485238 0.0123891,0.0712371l0 34.5335c0,0.118728 -0.0970476,0.215776 -0.215776,0.215776l-0.0289078 -0.00206484 -38.437 -1.87178c-0.114599,-0.00619453 -0.204419,-0.101177 -0.204419,-0.215776l-0.00103242 0 0 -19.2237c0,-0.103242 0.0722695,-0.189966 0.17035,-0.210614l0 -0.00103242zm108.096 20.445l0 -16.9317 -1.60542 0 -3.50404 1.96676 0.452201 1.401 2.82574 -1.60438 0 15.1683 1.83152 0zm-9.24327 -8.0023c-0.474914,3.18399 -2.25378,6.11297 -5.56062,6.57859l-1.74066 0.112534 0 1.55999c4.26493,0.189966 7.50364,-2.40451 8.68783,-6.50322 1.10159,-3.80757 0.710306,-10.9736 -4.66345,-10.9705 -6.64776,0.00309726 -7.35807,11.0965 -0.678301,11.0985 1.5858,0 2.93104,-0.653523 3.8881,-1.87591l0.0671074 0zm-3.4359 -7.7762c2.75657,0.0144539 3.44519,3.19225 3.4359,5.46254 -0.0134215,3.04668 -6.7221,4.61183 -6.73655,-1.06649 -0.00516211,-2.02355 1.01487,-4.38056 3.30065,-4.39605zm-7.09273 6.89451l-5.33555 0 0 1.51456 3.48132 0 0 5.51623c-1.37002,0.768121 -4.16582,0.583318 -5.59469,0.0185836 -4.57879,-1.80983 -4.9422,-9.03782 -1.97812,-12.0866 2.038,-2.09582 5.89513,-2.42206 8.4545,-1.18006l0.497627 -1.55896c-2.19803,-1.03139 -5.47493,-0.926082 -7.63682,-0.0722695 -6.52594,2.57796 -6.55278,12.1568 -1.96676,15.4698 2.69049,1.94508 7.06899,1.76441 10.0785,0.561637l0 -8.18297zm-15.3686 -7.7762c-2.57692,-1.65084 -8.80449,-1.03655 -8.79313,3.72911 0.00929179,3.96553 4.32894,4.45593 6.17904,5.82905 2.68739,1.99567 1.44642,6.66531 -3.69297,5.62876 -0.823872,-0.16622 -1.65394,-0.476979 -2.32811,-0.922985l-0.52034 1.55999c2.77412,1.95437 9.8111,1.62606 9.8111,-3.75285 0,-5.75678 -7.5501,-4.29591 -7.5501,-8.58975 0,-3.11791 4.35269,-3.21186 6.32978,-1.9234l0.564734 -1.55792zm-12.1361 -0.565767l-2.35082 0c-1.40409,3.90875 -3.89946,10.35 -4.92775,14.5127l-0.0681398 0c-1.19245,-4.69236 -3.17676,-9.91021 -4.76979,-14.5117l-2.3054 0 -1.19864 17.226 1.78609 0 0.813548 -15.1694 0.0681398 0c1.13876,4.75327 3.25213,10.4306 4.83793,15.1002l1.37828 0c1.76441,-4.95562 3.71568,-10.093 5.17759,-15.1002l0.0671074 0c-0.0258105,3.91907 0.517243,11.4372 0.723727,15.1683l1.8532 0 -1.08507 -17.226zm-56.6211 0.479044c-0.409871,-0.117696 -0.840391,0.117696 -0.958087,0.5286 -0.118728,0.409871 0.117696,0.839359 0.527567,0.958087l14.0399 4.06361 0.313856 -0.26017 13.979 -11.5383c0.329342,-0.270494 0.376834,-0.75883 0.105307,-1.08817 -0.270494,-0.330375 -0.75883,-0.377866 -1.08817,-0.106339l-13.6651 11.2792 -13.2542 -3.83648z"/>
 </g>
</svg>