<svg xmlns="http://www.w3.org/2000/svg" viewBox="2186 3773 50 42.468">
  <defs>
    <style>
      .cls-1 {
        fill: #565b73;
      }

      .cls-2 {
        fill: #156bb3;
      }
    </style>
  </defs>
  <g id="Group_3005" data-name="Group 3005" transform="translate(2186 3773)">
    <path id="Path_10497" data-name="Path 10497" class="cls-1" d="M17.553,4.654A10.964,10.964,0,0,1,24.867,7.58L25,7.713a10.044,10.044,0,0,1,2.926,7.181A10.964,10.964,0,0,1,25,22.207a9.912,9.912,0,0,1-7.314,2.926,10.37,10.37,0,0,1-2.926-.4,9.163,9.163,0,0,1-1.064-.4v4.388a1.144,1.144,0,0,1-1.064,1.064H1.064A1.144,1.144,0,0,1,0,28.723V1.064A1.144,1.144,0,0,1,1.064,0H12.633A1.144,1.144,0,0,1,13.7,1.064V5.452c.266-.133.665-.266.931-.4a11.076,11.076,0,0,1,2.926-.4Zm5.718,4.388a8.276,8.276,0,0,0-5.718-2.394,6.212,6.212,0,0,0-2.261.4,14.775,14.775,0,0,0-2.128.931,2.247,2.247,0,0,1-.665.266,1.144,1.144,0,0,1-1.064-1.064V2.128H1.995V27.793h9.441V22.739c0-.266.133-.4.133-.665a.96.96,0,0,1,1.463-.266,6.11,6.11,0,0,0,2.128.931,13.437,13.437,0,0,0,2.261.4,7.808,7.808,0,0,0,5.718-2.394,8.276,8.276,0,0,0,2.394-5.718,8.276,8.276,0,0,0-2.394-5.718l-.133-.133Z"/>
    <path id="Path_10498" data-name="Path 10498" class="cls-2" d="M29.989,40.672,14.032,31.5a1.07,1.07,0,0,1-.4-1.463h0l3.059-5.319a1.07,1.07,0,0,1,1.463-.4q.4.2.4.4h0a9.439,9.439,0,0,0,1.33,1.862,10.042,10.042,0,0,0,1.862,1.463h.133a8.309,8.309,0,0,0,6.117.8,7.87,7.87,0,0,0,4.92-3.856h0a8.034,8.034,0,0,0,.8-6.25,7.87,7.87,0,0,0-3.856-4.92h0a14.775,14.775,0,0,0-2.128-.931,6.975,6.975,0,0,0-2.394-.266,1.028,1.028,0,0,1-1.064-.931c0-.266.133-.4.133-.532h0l3.059-5.319a1.07,1.07,0,0,1,1.463-.4h.133l15.957,9.176a1.07,1.07,0,0,1,.4,1.463h0L31.452,40.14a1.262,1.262,0,0,1-1.463.532Z" transform="translate(4.452 1.748)"/>
  </g>
</svg>
