<svg xmlns="http://www.w3.org/2000/svg" viewBox="1796 4159 40.966 50">
  <defs>
    <style>
      .cls-1 {
        fill: #565b73;
      }

      .cls-2 {
        fill: #156bb3;
      }
    </style>
  </defs>
  <g id="Group_3007" data-name="Group 3007" transform="translate(1423 -38)">
    <path id="Path_10495" data-name="Path 10495" class="cls-1" d="M39.564,50H1.246A1.34,1.34,0,0,1,0,48.754V18.069a1.34,1.34,0,0,1,1.246-1.246H7.788v-4.05a12.581,12.581,0,0,1,3.738-9.034h0A12.222,12.222,0,0,1,20.4,0h0a12.581,12.581,0,0,1,9.034,3.738l.156.156a12.349,12.349,0,0,1,3.583,8.879v4.05H39.72a1.34,1.34,0,0,1,1.246,1.246V48.754A1.5,1.5,0,0,1,39.564,50ZM10.125,16.978H30.685V12.773a10,10,0,0,0-2.96-7.165H27.57a10.225,10.225,0,0,0-7.321-3.115h0a10.138,10.138,0,0,0-7.321,3.115h0a10.225,10.225,0,0,0-3.115,7.321l.312,4.05ZM2.492,47.508H38.318V19.47H2.492S2.492,47.508,2.492,47.508Z" transform="translate(373 4197)"/>
    <path id="Path_10499" data-name="Path 10499" class="cls-2" d="M16.358,23.329a3.029,3.029,0,1,0-6.058,0,2.619,2.619,0,0,0,1.748,2.8V32.3h2.563V26.125A2.988,2.988,0,0,0,16.358,23.329Z" transform="translate(379.7 4212.2)"/>
  </g>
</svg>
