<svg xmlns="http://www.w3.org/2000/svg" viewBox="1796 2956 50 50">
  <defs>
    <style>
      .cls-1 {
        fill: #565b73;
      }
    </style>
  </defs>
  <path id="Path_10514" data-name="Path 10514" class="cls-1" d="M6.891,6.735a23.254,23.254,0,0,1,32.733,0h0a23.1,23.1,0,0,1,6.735,16.445,23.464,23.464,0,0,1-5.951,15.505l9.24,9.24a1.218,1.218,0,0,1-1.723,1.723l-9.24-9.24a23.464,23.464,0,0,1-15.505,5.951h0A23.1,23.1,0,0,1,6.735,39.624h0a23.254,23.254,0,0,1,.157-32.89ZM23.179,2.506A20.9,20.9,0,0,0,8.614,8.457h0a20.8,20.8,0,0,0-.157,29.287h0a20.755,20.755,0,0,0,14.722,6.108h0A20.755,20.755,0,0,0,37.9,37.745h0a20.755,20.755,0,0,0,6.108-14.722A20.4,20.4,0,0,0,37.9,8.457h0A20.592,20.592,0,0,0,23.179,2.506Z" transform="translate(1796 2956)"/>
</svg>
