<svg xmlns="http://www.w3.org/2000/svg" xmlns:xlink="http://www.w3.org/1999/xlink" viewBox="1798 3421 58.854 60">
  <defs>
    <style>
      .cls-1 {
        fill: #565b73;
      }

      .cls-2 {
        clip-path: url(#clip-path);
      }

      .cls-3 {
        fill: #156bb3;
      }

      .cls-4 {
        fill: #fff;
      }
    </style>
    <clipPath id="clip-path">
      <path id="XMLID_77_" class="cls-1" d="M684.353,165.685c11.223,8.665,5.2,51.383-8.079,56.853s-45.185-20.333-44.892-34.66S673.13,157.02,684.353,165.685Z" transform="translate(2290.62 3730.713)"/>
    </clipPath>
  </defs>
  <g id="Group_3286" data-name="Group 3286" transform="translate(1798 3301)">
    <g id="Group_3281" data-name="Group 3281" transform="translate(0 -60)">
      <g id="Mask_Group_18" data-name="Mask Group 18" class="cls-2" transform="translate(-2922 -3714)">
        <rect id="Rectangle_1428" data-name="Rectangle 1428" class="cls-1" width="60" height="60" transform="translate(2922 3894)"/>
      </g>
      <g id="Group_3280" data-name="Group 3280" transform="translate(2 1)">
        <path id="Path_11471" data-name="Path 11471" class="cls-3" d="M3043.087,3923.749s2.222,4.855,5.719,5.554.288,2.715,6.418,2.263c1.005-.074-.165,0-.165,0s-1.436.184,1.728,2.592c3.785,2.88-1.851,3.456,4.9,4.69s11.4,2.427,13.659,3.579,5.1,1.234,6.665,2.51,4.937,3.621,4.484,2.18-1.152-3.662-2.1-3.908-2.016-.452-4.4-2.592-5.678-1.481-7.035-3.044-3.25-1.317-4.525-2.633-3.086-1.275-.988-1.687,2.962-1.851,4.238-.617,1.275,3.044,1.769,3.168a2.246,2.246,0,0,0,1.6-.206c.247-.247-.452-1.357-.452-2.345s-.658-2.057.74-1.4,2.962,2.469,3.168,2.51a5.986,5.986,0,0,0,2.1-.658,2.3,2.3,0,0,1,2.427-.165,10.89,10.89,0,0,1,2.962,2.551,8.556,8.556,0,0,0,4.443,2.469c.411-.082.288-1.111-.329-2.016s-3.5-5.513-4.937-6.542-2.633-3.044-9.051-4.279-14.893,2.139-14.893,2.139-1.728.164-1.275-.741a5.5,5.5,0,0,0,.905-2.386c.041-.947-1.358-2.057-1.769-2.1s-1.275.617-2.3,1.275-1.975.782-2.1,1.275-.576,2.1-1.275,1.934-1.193.576-1.728,0a31.027,31.027,0,0,0-4.155-2.715,24.693,24.693,0,0,0-3.662-1.07C3043.7,3923.42,3043.087,3923.749,3043.087,3923.749Z" transform="translate(-3039.348 -3723.139)"/>
        <path id="Path_11470" data-name="Path 11470" class="cls-4" d="M.937.089a3.251,3.251,0,0,1,.853.256A6.57,6.57,0,0,1,3.07.857a4.6,4.6,0,0,1,1.109.6,16.322,16.322,0,0,1,4.181,1.28A6.592,6.592,0,0,1,10.75,4.441l2.048.683a1.4,1.4,0,0,1,.853-.171l.341-.171V4.7h0a.942.942,0,0,1,.939-.853c.085-.085.085-.171.085-.427-.085-.341.256-.683.6-.768h1.28a1.858,1.858,0,0,0,.683-.427c.085-.768.512-2.73,3.413-.853a.686.686,0,0,1,.256.939h0c.853.683,1.792,1.536.427,3.157a3.249,3.249,0,0,1-.427.512,5.2,5.2,0,0,1,1.621-.341,13.5,13.5,0,0,0,3.072-.768c2.73-.853,6.144-1.963,13.226-.341C45.222,6.062,47.782,10.072,50,13.485c1.365,2.133,2.56,4.01,4.437,4.693a.748.748,0,0,1,.427.853.611.611,0,0,1-.768.427h0a17.642,17.642,0,0,1-7.935-4.437c-2.048-1.792-3.5-3.072-6.656-.853A.606.606,0,0,1,38.567,14h0a7.228,7.228,0,0,0-2.56-2.475c.085.427.085.853.171,1.365a1.53,1.53,0,0,1,.427.6,1.265,1.265,0,0,1,.085.6,2.008,2.008,0,0,1-.171.683,1.518,1.518,0,0,1-1.536.853h-.6l.341.256c2.645,1.792,3.242,2.133,4.608,2.133.171,0,.256,0,.341.085l1.365.853a.526.526,0,0,1,.6.085c.085.085.171.085.171.171h0s1.877,2.3,2.219,2.3h0a2.679,2.679,0,0,0,.768-.085.688.688,0,0,1,.768.256,11.569,11.569,0,0,1,1.792,2.475,2.121,2.121,0,0,1,.085.683,4.061,4.061,0,0,1,.683,1.536.775.775,0,0,1-.256.6,1.375,1.375,0,0,1-.6.341,1.452,1.452,0,0,1-.6-.085,1.6,1.6,0,0,1-.6-.512,16.914,16.914,0,0,1-2.645-1.621,19.918,19.918,0,0,0-3.072-1.28.676.676,0,0,1-.427-.683,3.281,3.281,0,0,0-2.048-.512h-.256l-9.045-2.9a2.767,2.767,0,0,1-1.877-.6s-.939-.171-2.133-.427c-1.195-.171-2.56-.341-3.84-.427h-.085c-.341-.085-3.413-.768-3.669-4.949-.341-.512-1.365-1.792-1.536-2.048a7.67,7.67,0,0,1-3.157-.427h0A10.744,10.744,0,0,1,9.214,8.878c-.939,0-3.072-.6-5.8-5.376C2.3,3.331-.855,2.9.937,1.881.681,1.8.6,1.8.511,1.71V1.625C.34,1.54.255,1.369.169,1.284A.947.947,0,0,1,.084.345L.34.089a.729.729,0,0,1,.6,0Zm6.656,3.84A9.271,9.271,0,0,0,4.521,2.9c2.9,4.949,4.437,4.608,4.608,4.608a.644.644,0,0,1,.683.085,9.616,9.616,0,0,0,2.9,1.963h0a7.073,7.073,0,0,0,2.73.341H15.7a13.682,13.682,0,0,1,2.389,2.645.652.652,0,0,1,.171.427c.171,3.242,2.3,3.84,2.56,3.84,1.28.085,2.73.256,3.925.427a16.529,16.529,0,0,1,2.56.6.443.443,0,0,1,.341.171h0l.341.171c.171,0,.256.085.341.085h0a.388.388,0,0,1,.427,0l9.13,2.9a5.125,5.125,0,0,1,3.328,1.109h0a.443.443,0,0,1,.171.341,16.736,16.736,0,0,1,2.986,1.365,7.037,7.037,0,0,0,1.536.939v-.171c0-.171,0-.256.085-.341a14.679,14.679,0,0,0-1.28-1.707,3.2,3.2,0,0,1-.939.085h0c-.683-.085-2.048-1.536-2.816-2.389-.171,0-.256,0-.341-.085l-1.621-1.024c-1.621,0-2.3-.427-5.2-2.389a18.937,18.937,0,0,1-1.621-1.109h0c-.085,0-.085-.085-.171-.085a2.507,2.507,0,0,0-2.133-.939h-.256a4.243,4.243,0,0,1-2.986-2.73h0v-.341a.664.664,0,0,1,.768-.512,4.028,4.028,0,0,0,3.072-.683h0a.829.829,0,0,1,.768-.085c2.475,1.451,2.645,1.877,3.157,2.73,0,.085.085.085.085.171a.748.748,0,0,1-.427.853.7.7,0,0,0,.6,0h.085a.5.5,0,0,0,.341-.085v-.256h0a.642.642,0,0,1-.427-.6c-.085-1.109-.341-2.56-.341-2.73h0v-.256a.757.757,0,0,1,.853-.512,7.925,7.925,0,0,1,4.1,2.9c3.669-2.219,5.29-.768,7.765,1.365A15.62,15.62,0,0,0,50.6,16.643c-.6-.768-1.109-1.621-1.707-2.475-2.048-3.157-4.522-6.912-10.069-8.191-6.741-1.536-9.9-.512-12.543.256A16.38,16.38,0,0,1,22.867,7c-1.195.085-1.451.341-1.451.341h0a.656.656,0,0,1-.853.085l-.341-.256a.084.084,0,0,1-.085-.085s-.939-.853.427-2.475c.512-.6,0-1.024-.427-1.28h0c-.512-.427-.683-.768-.6-1.109-.512-.171-.6.171-.6.256a.915.915,0,0,1-.171.512,3.888,3.888,0,0,1-1.536.939,3.2,3.2,0,0,1-.939.085,1.636,1.636,0,0,1-1.024,1.109,4.256,4.256,0,0,1-1.195,1.024.7.7,0,0,1-.6.085l-.085.085h0a.664.664,0,0,1-.683.171l-2.56-.853a.666.666,0,0,1-.341-.341A4.706,4.706,0,0,0,7.849,3.929h0c-.171.085-.256,0-.256,0Zm27.646,9.983Zm-2.56.512c-.085-.171,0-.427,0-.6l.256-.512a8.4,8.4,0,0,0-1.963-1.451,5.547,5.547,0,0,1-2.389.768,2.868,2.868,0,0,0,1.365.768,4.891,4.891,0,0,1,2.73,1.024Z" transform="translate(0.009 197.975)"/>
      </g>
    </g>
  </g>
</svg>
