<svg xmlns="http://www.w3.org/2000/svg" viewBox="2186 2562 52.97 50">
  <defs>
    <style>
      .cls-1 {
        fill: #565b73;
      }

      .cls-2 {
        fill: #156bb3;
      }
    </style>
  </defs>
  <g id="Group_2876" data-name="Group 2876" transform="translate(1434 -2885)">
    <path id="Path_9072" data-name="Path 9072" class="cls-1" d="M4.022,15.161a2.294,2.294,0,0,1,1.083.155L16.4,5.724a5.5,5.5,0,0,1-.309-1.547,4.157,4.157,0,0,1,7.116-2.939,4.221,4.221,0,0,1,1.083,2.011L45.173,6.962c.155-.155.309-.464.464-.619a3.961,3.961,0,0,1,2.939-1.238,4.227,4.227,0,0,1,2.939,1.238h0A4.124,4.124,0,0,1,52.6,9.127a4.227,4.227,0,0,1-1.238,2.939A3.874,3.874,0,0,1,48.577,13.3L42.853,35.427l.155.155h0a3.728,3.728,0,0,1,1.083,2.785,4.227,4.227,0,0,1-1.238,2.939H42.7a4.448,4.448,0,0,1-2.785,1.083,3.639,3.639,0,0,1-2.63-.928L18.719,46.72a3.21,3.21,0,0,1-.928,1.547h0A3.961,3.961,0,0,1,14.851,49.5a4.227,4.227,0,0,1-2.939-1.238h0a3.961,3.961,0,0,1-1.238-2.939A3.639,3.639,0,0,1,11.6,42.7L3.558,23.205a3.82,3.82,0,0,1-2.475-1.238v-.155A3.732,3.732,0,0,1,0,19.183a4.227,4.227,0,0,1,1.238-2.939,3.728,3.728,0,0,1,2.785-1.083Zm3.249,1.547a2.562,2.562,0,0,1,.774,1.856l6.343.928a3.368,3.368,0,0,1,.774-1.238,4.109,4.109,0,0,1,5.879,0c.155.155.309.309.309.464L44.09,8.973,23.979,5.415a2.783,2.783,0,0,1-.928,1.392h0a3.961,3.961,0,0,1-2.939,1.238,5.036,5.036,0,0,1-2.166-.619L7.271,16.708Zm15.47,4.022,11.757,1.7a2.775,2.775,0,0,1,.774-1.083h0a3.961,3.961,0,0,1,2.939-1.238,1.962,1.962,0,0,1,.928.155l6.033-8.973-.155-.155L22.741,20.73Zm13.614,7.116L19.028,44.09v.155L36.2,39.295a1.962,1.962,0,0,1-.155-.928,4.227,4.227,0,0,1,1.238-2.939A3.21,3.21,0,0,1,38.83,34.5L37.9,28.311a2.614,2.614,0,0,1-1.547-.464ZM17.636,42.079,34.653,26.145a4.917,4.917,0,0,1-.464-1.392L21.813,22.9a2.775,2.775,0,0,1-.774,1.083h0a4.221,4.221,0,0,1-2.011,1.083L17.017,41.77a1.173,1.173,0,0,0,.619.309ZM45.947,14.387,41.306,21.5a4.448,4.448,0,0,1,1.083,2.785,4.227,4.227,0,0,1-1.238,2.939,2.716,2.716,0,0,1-.774.619l.774,5.415,4.8-18.874Zm-38.212,6.5a2.775,2.775,0,0,1-.774,1.083h0c-.309.309-.619.464-.928.774l8.2,18.719c.155,0,.464-.155.619-.155l1.856-16.4a2.783,2.783,0,0,1-1.392-.928h0a4.125,4.125,0,0,1-1.083-2.166l-6.5-.928Z" transform="translate(752 5447)"/>
    <circle id="Ellipse_33" data-name="Ellipse 33" class="cls-2" cx="4.208" cy="4.208" r="4.208" transform="translate(765.861 5463.832)"/>
    <circle id="Ellipse_34" data-name="Ellipse 34" class="cls-2" cx="4.208" cy="4.208" r="4.208" transform="translate(796.554 5451.951)"/>
    <circle id="Ellipse_35" data-name="Ellipse 35" class="cls-2" cx="4.208" cy="4.208" r="4.208" transform="translate(767.842 5447)"/>
    <circle id="Ellipse_36" data-name="Ellipse 36" class="cls-2" cx="4.208" cy="4.208" r="4.208" transform="translate(785.663 5466.802)"/>
    <circle id="Ellipse_37" data-name="Ellipse 37" class="cls-2" cx="4.208" cy="4.208" r="4.208" transform="translate(787.644 5480.664)"/>
    <circle id="Ellipse_38" data-name="Ellipse 38" class="cls-2" cx="4.208" cy="4.208" r="4.208" transform="translate(761.901 5488.584)"/>
    <circle id="Ellipse_39" data-name="Ellipse 39" class="cls-2" cx="4.208" cy="4.208" r="4.208" transform="translate(752 5461.852)"/>
  </g>
</svg>
