<svg xmlns="http://www.w3.org/2000/svg" viewBox="2185 3354 52.024 52">
  <defs>
    <style>
      .cls-1 {
        fill: none;
      }

      .cls-1, .cls-2 {
        stroke: #156bb3;
      }

      .cls-1, .cls-2, .cls-3 {
        stroke-width: 2px;
      }

      .cls-2 {
        fill: #156bb3;
      }

      .cls-3 {
        fill: #565b73;
        stroke: #565b73;
      }
    </style>
  </defs>
  <g id="Group_3004" data-name="Group 3004" transform="translate(1397 -752)">
    <g id="Group_2966" data-name="Group 2966" transform="translate(789 4107)">
      <path id="Path_10501" data-name="Path 10501" class="cls-1" d="M5.984,5.828,1.3,21.753,26.437,46.89,46.89,26.437,21.753,1.3Zm9.68,9.836a3.4,3.4,0,0,1-4.684,0h0a3.75,3.75,0,0,1-.937-2.342,3.177,3.177,0,0,1,.937-2.342h0a3.75,3.75,0,0,1,2.342-.937,3.177,3.177,0,0,1,2.342.937,3.4,3.4,0,0,1,0,4.684Z" transform="translate(0.73 0.73)"/>
      <path id="Path_10502" data-name="Path 10502" class="cls-1" d="M9.505,8.1a2.219,2.219,0,0,0-.937.312h0A2.075,2.075,0,0,0,8.1,9.505a2.219,2.219,0,0,0,.312.937h0a2.075,2.075,0,0,0,1.093.468,1.349,1.349,0,0,0,.937-.468,1.349,1.349,0,0,0,.468-.937,1.349,1.349,0,0,0-.468-.937A1.349,1.349,0,0,0,9.505,8.1Z" transform="translate(4.546 4.546)"/>
      <path id="Path_10503" data-name="Path 10503" class="cls-2" d="M10.179,6.9a3.75,3.75,0,0,0-2.342.937h0A3.177,3.177,0,0,0,6.9,10.179a3.442,3.442,0,0,0,.937,2.342h0a3.4,3.4,0,0,0,4.684,0,3.442,3.442,0,0,0,.937-2.342,2.851,2.851,0,0,0-.937-2.342A3.177,3.177,0,0,0,10.179,6.9Zm.937,4.215a.944.944,0,0,1-.937.468,1.349,1.349,0,0,1-.937-.468h0a1.349,1.349,0,0,1-.468-.937,1.349,1.349,0,0,1,.468-.937h0a1.349,1.349,0,0,1,.937-.468,1.349,1.349,0,0,1,.937.468,1.349,1.349,0,0,1,.468.937A1.113,1.113,0,0,1,11.115,11.115Z" transform="translate(3.873 3.873)"/>
      <path id="Path_10504" data-name="Path 10504" class="cls-3" d="M49.649,26.542,23.575.312A1.317,1.317,0,0,0,22.483,0L5.621,5A.672.672,0,0,0,5,5.621L0,22.483c0,.312,0,.781.312.937l26.23,26.23a.878.878,0,0,0,1.405,0L49.8,27.791h0A.826.826,0,0,0,49.649,26.542ZM27.166,47.619,2.03,22.483,6.714,6.557,22.639,2.03,47.775,27.166Z"/>
    </g>
  </g>
</svg>
