<svg xmlns="http://www.w3.org/2000/svg" viewBox="0 0 45.245 35">
  <defs>
    <style>
      .cls-1 {
        fill: #666;
      }
    </style>
  </defs>
  <g id="Group_497" data-name="Group 497" transform="translate(-316.31 -4.072)">
    <g id="Group_390" data-name="Group 390" transform="translate(316.31 4.072)">
      <path id="Path_95" data-name="Path 95" class="cls-1" d="M316.8,26.169c.1-.2.1-.392.2-.49.49-1.079,1.469-1.471,2.938-1.079a2.2,2.2,0,0,1,1.175-2.059,2.272,2.272,0,0,1,2.35.2,2.32,2.32,0,0,1,2.742-.784v-5.1a2.195,2.195,0,0,1,3.33-1.961,2.219,2.219,0,0,1,1.077,2.059V30.287a1.621,1.621,0,0,0,1.861,1.863h3.819a2.467,2.467,0,0,1,2.546,2.157,2.409,2.409,0,0,1-2.252,2.745,23.837,23.837,0,0,0-2.644.1,3.69,3.69,0,0,0-2.057.686,7.648,7.648,0,0,1-2.84,1.373c-.686.1-1.469.1-2.155.2a.655.655,0,0,1-.686-.588c0-.392.294-.588.686-.588h.588a5.493,5.493,0,0,0,3.036-.882,7.173,7.173,0,0,1,3.721-1.373h2.448a1.3,1.3,0,0,0,.881-1.275,1.253,1.253,0,0,0-1.077-1.177h-4.211a2.83,2.83,0,0,1-3.036-3.04V17.247c0-.686-.392-1.177-.979-1.177s-.979.49-.979,1.177v11.57c0,.49-.294.784-.588.784-.392,0-.588-.294-.588-.784V24.5a.992.992,0,0,0-.783-1.079.978.978,0,0,0-1.077,1.079v4.02c-.1.392-.2.588-.588.588a.52.52,0,0,1-.588-.588v-3.53c0-.686-.392-1.177-.979-1.177s-.979.49-.979,1.177v4.118a.52.52,0,0,1-.588.588.565.565,0,0,1-.588-.588V27.15a1.461,1.461,0,0,0-.392-.882.742.742,0,0,0-.979-.1,1.079,1.079,0,0,0-.588.98v6.177a5.792,5.792,0,0,0,.2,1.373,10.8,10.8,0,0,0,1.665,3.922c.392.588.392.882.1,1.177-.294.2-.686.1-1.077-.392a10.631,10.631,0,0,1-2.057-5.1c0-.1-.1-.2-.1-.294C316.8,31.072,316.8,28.621,316.8,26.169Z" transform="translate(-316.7 -4.893)"/>
      <path id="Path_96" data-name="Path 96" class="cls-1" d="M352.938,21.954c1.469-.294,1.763-.2,2.742.686,2.057-.882,3.232-.294,3.624,1.863a8.365,8.365,0,0,1,1.567,0,1.9,1.9,0,0,1,1.567,1.863c0,2.647,0,5.393-.2,8.04a8.537,8.537,0,0,1-2.057,4.706c-.294.392-.685.49-.979.294s-.392-.588,0-.98a9.267,9.267,0,0,0,1.861-4.118c.1-.49.1-1.079.2-1.667V26.758a1.37,1.37,0,0,0-.294-.882.735.735,0,0,0-.979-.2.942.942,0,0,0-.588.882v2.059a.655.655,0,0,1-.588.686c-.392,0-.588-.294-.588-.686V24.5a1.007,1.007,0,0,0-.979-1.079.956.956,0,0,0-.979,1.079v3.334c0,.588-.2.882-.588.784-.392,0-.588-.294-.588-.784V23.915c-.1-.588-.49-.98-.979-.882a1.042,1.042,0,0,0-.979.882v4.706a.6.6,0,0,1-1.175,0V17.051c0-.882-.392-1.373-.979-1.373s-.979.49-.979,1.373V30.19a2.885,2.885,0,0,1-3.134,3.138h-3.819a1.237,1.237,0,0,0-1.273,1.667,1.181,1.181,0,0,0,1.175.784,22.108,22.108,0,0,1,2.546.1,4.979,4.979,0,0,1,2.546.882,7.293,7.293,0,0,0,2.448,1.275,6.458,6.458,0,0,0,1.371.1h.685a.588.588,0,0,1,0,1.177,6.152,6.152,0,0,1-4.113-.98,6.715,6.715,0,0,0-3.33-1.373h-2.057a3.185,3.185,0,0,1-1.371-.392,2.323,2.323,0,0,1-1.077-2.647,2.406,2.406,0,0,1,2.155-1.863h4.015c1.371,0,1.959-.588,1.959-1.961V16.953a2.219,2.219,0,0,1,1.077-2.059,2.3,2.3,0,0,1,2.252,0,2.167,2.167,0,0,1,1.077,1.961v4.51A.721.721,0,0,0,352.938,21.954Z" transform="translate(-317.192 -4.893)"/>
      <g id="Group_385" data-name="Group 385" transform="translate(14.984)">
        <path id="Path_98" data-name="Path 98" class="cls-1" d="M332.49,9.8c-.294,0-.49-.2-.49-.588V5.288a.549.549,0,0,1,.49-.588h3.917c.294,0,.49.2.49.588s-.2.588-.49.588h-3.428V9.308C333.077,9.5,332.783,9.8,332.49,9.8Z" transform="translate(-332 -4.7)"/>
      </g>
      <g id="Group_386" data-name="Group 386" transform="translate(25.56)">
        <path id="Path_99" data-name="Path 99" class="cls-1" d="M347.207,9.8c.294,0,.49-.2.49-.588V5.288a.549.549,0,0,0-.49-.588H343.29c-.294,0-.49.2-.49.588s.2.588.49.588h3.428V9.308A.525.525,0,0,0,347.207,9.8Z" transform="translate(-342.8 -4.7)"/>
      </g>
      <g id="Group_389" data-name="Group 389" transform="translate(14.984 13.139)">
        <g id="Group_387" data-name="Group 387">
          <path id="Path_100" data-name="Path 100" class="cls-1" d="M332.49,18.1c-.294,0-.49.2-.49.588V22.61a.549.549,0,0,0,.49.588h3.917c.294,0,.49-.2.49-.588a.549.549,0,0,0-.49-.588h-3.428V18.59C333.077,18.3,332.783,18.1,332.49,18.1Z" transform="translate(-332 -18.1)"/>
        </g>
        <g id="Group_388" data-name="Group 388" transform="translate(10.577)">
          <path id="Path_101" data-name="Path 101" class="cls-1" d="M347.207,18.1c.294,0,.49.2.49.588V22.61a.549.549,0,0,1-.49.588H343.29c-.294,0-.49-.2-.49-.588a.549.549,0,0,1,.49-.588h3.428V18.59A.463.463,0,0,1,347.207,18.1Z" transform="translate(-342.8 -18.1)"/>
        </g>
      </g>
      <g id="Group_737" data-name="Group 737" transform="translate(20.691 4.014)">
        <path id="Path_157" data-name="Path 157" class="cls-1" d="M256.9,16.281v-.4a3.731,3.731,0,0,1,1-2.793,3.52,3.52,0,0,0,1.1-2.195,1.339,1.339,0,0,0-1.5-1.4,2.76,2.76,0,0,0-1.6.5l-.4-1a3.911,3.911,0,0,1,2.294-.6c1.8,0,2.693,1.1,2.693,2.294a4.192,4.192,0,0,1-1.4,2.793,2.843,2.843,0,0,0-.9,2.294v.4h-1.3Zm-.4,2.195a.943.943,0,0,1,1-1c.6,0,.9.4.9,1a.942.942,0,0,1-1,1A.921.921,0,0,1,256.5,18.476Z" transform="translate(-255.5 -8.4)"/>
      </g>
    </g>
  </g>
</svg>
