<svg id="Group_235" data-name="Group 235" xmlns="http://www.w3.org/2000/svg" viewBox="604.4 240 38 35">
  <defs>
    <style>
      .cls-1 {
        fill: #d9d9d9;
      }

      .cls-2 {
        fill: #666;
      }
    </style>
  </defs>
  <g id="Group_175" data-name="Group 175" transform="translate(73 240.2)">
    <g id="Group_167" data-name="Group 167" transform="translate(531.4 0.845)">
      <g id="Group_151" data-name="Group 151" transform="translate(5.786 5.92)">
        <g id="Group_148" data-name="Group 148" transform="translate(2.159)">
          <g id="Group_147" data-name="Group 147">
            <rect id="Rectangle_51" data-name="Rectangle 51" class="cls-1" width="3.195" height="0.697"/>
          </g>
        </g>
        <g id="Group_150" data-name="Group 150">
          <g id="Group_149" data-name="Group 149">
            <rect id="Rectangle_52" data-name="Rectangle 52" class="cls-1" width="1.036" height="0.697"/>
          </g>
        </g>
      </g>
      <g id="Group_156" data-name="Group 156" transform="translate(0 27.164)">
        <g id="Group_153" data-name="Group 153" transform="translate(1.555)">
          <g id="Group_152" data-name="Group 152">
            <rect id="Rectangle_53" data-name="Rectangle 53" class="cls-1" width="3.195" height="0.784"/>
          </g>
        </g>
        <g id="Group_155" data-name="Group 155">
          <g id="Group_154" data-name="Group 154">
            <rect id="Rectangle_54" data-name="Rectangle 54" class="cls-1" width="0.777" height="0.784"/>
          </g>
        </g>
      </g>
      <g id="Group_161" data-name="Group 161" transform="translate(26.514)">
        <g id="Group_158" data-name="Group 158">
          <g id="Group_157" data-name="Group 157">
            <rect id="Rectangle_55" data-name="Rectangle 55" class="cls-1" width="3.8" height="0.871"/>
          </g>
        </g>
        <g id="Group_160" data-name="Group 160" transform="translate(5.095)">
          <g id="Group_159" data-name="Group 159">
            <rect id="Rectangle_56" data-name="Rectangle 56" class="cls-1" width="1.295" height="0.871"/>
          </g>
        </g>
      </g>
      <g id="Group_166" data-name="Group 166" transform="translate(32.991 20.373)">
        <g id="Group_163" data-name="Group 163">
          <g id="Group_162" data-name="Group 162">
            <rect id="Rectangle_57" data-name="Rectangle 57" class="cls-1" width="3.368" height="0.871"/>
          </g>
        </g>
        <g id="Group_165" data-name="Group 165" transform="translate(4.145)">
          <g id="Group_164" data-name="Group 164">
            <rect id="Rectangle_58" data-name="Rectangle 58" class="cls-1" width="0.864" height="0.871"/>
          </g>
        </g>
      </g>
    </g>
    <g id="Group_174" data-name="Group 174" transform="translate(534.25 -0.2)">
      <g id="Group_173" data-name="Group 173" transform="translate(0)">
        <g id="Group_168" data-name="Group 168" transform="translate(6.132 10.1)">
          <path id="Path_39" data-name="Path 39" class="cls-2" d="M542.232,21.238a.41.41,0,0,1-.432-.435,9.382,9.382,0,0,1,9.327-9.4.435.435,0,0,1,0,.871,8.53,8.53,0,0,0-8.55,8.532A.4.4,0,0,1,542.232,21.238Z" transform="translate(-541.8 -11.4)"/>
        </g>
        <g id="Group_169" data-name="Group 169" transform="translate(14.595)">
          <path id="Path_40" data-name="Path 40" class="cls-2" d="M553.759,4.153a.41.41,0,0,1-.432-.435,2.391,2.391,0,0,0-1.3-1.306.41.41,0,0,1-.432-.435.41.41,0,0,1,.432-.435,2.391,2.391,0,0,0,1.3-1.306.432.432,0,1,1,.864,0,2.391,2.391,0,0,0,1.3,1.306.41.41,0,0,1,.432.435.41.41,0,0,1-.432.435,2.391,2.391,0,0,0-1.3,1.306C554.1,3.979,553.932,4.153,553.759,4.153Zm-.777-2.09a6.632,6.632,0,0,1,.777.784,6.618,6.618,0,0,1,.777-.784,6.622,6.622,0,0,1-.777-.784A3.314,3.314,0,0,1,552.982,2.064Z" transform="translate(-551.6 0.2)"/>
        </g>
        <g id="Group_170" data-name="Group 170" transform="translate(0 8.271)">
          <path id="Path_41" data-name="Path 41" class="cls-2" d="M537.55,15.046a.41.41,0,0,1-.432-.435,3.25,3.25,0,0,0-1.986-2,.435.435,0,0,1,0-.871,3.25,3.25,0,0,0,1.986-2,.432.432,0,1,1,.864,0,3.25,3.25,0,0,0,1.986,2,.435.435,0,0,1,0,.871,3.25,3.25,0,0,0-1.986,2A.41.41,0,0,1,537.55,15.046Zm-1.3-2.786a5.277,5.277,0,0,1,1.382,1.393,5.279,5.279,0,0,1,1.382-1.393,5.279,5.279,0,0,1-1.382-1.393A10.457,10.457,0,0,1,536.255,12.26Z" transform="translate(-534.7 -9.3)"/>
        </g>
        <g id="Group_171" data-name="Group 171" transform="translate(26.6 12.102)">
          <path id="Path_42" data-name="Path 42" class="cls-2" d="M567.918,18.576a.41.41,0,0,1-.432-.435,1.775,1.775,0,0,0-.6-.958,1.756,1.756,0,0,0-.95-.609.435.435,0,0,1,0-.871,1.756,1.756,0,0,0,.95-.609,1.775,1.775,0,0,0,.6-.958.432.432,0,1,1,.864,0,1.775,1.775,0,0,0,.6.958,1.755,1.755,0,0,0,.95.609.435.435,0,0,1,0,.871,1.755,1.755,0,0,0-.95.609,1.775,1.775,0,0,0-.6.958A.41.41,0,0,1,567.918,18.576Zm-.864-2.264a4.967,4.967,0,0,1,.95.958,4.969,4.969,0,0,1,.95-.958,4.968,4.968,0,0,1-.95-.958A4.967,4.967,0,0,1,567.055,16.312Z" transform="translate(-565.5 -13.7)"/>
        </g>
        <g id="Group_172" data-name="Group 172" transform="translate(18.309 2.09)">
          <path id="Path_43" data-name="Path 43" class="cls-2" d="M559.182,8.817a.41.41,0,0,1-.432-.435,4.19,4.19,0,0,0-2.418-2.438.435.435,0,0,1,0-.871,4.19,4.19,0,0,0,2.418-2.438.432.432,0,1,1,.864,0,4.19,4.19,0,0,0,2.418,2.438.435.435,0,0,1,0,.871,4.19,4.19,0,0,0-2.418,2.438A.41.41,0,0,1,559.182,8.817ZM557.455,5.6a5.519,5.519,0,0,1,1.727,1.741A5.52,5.52,0,0,1,560.909,5.6a5.52,5.52,0,0,1-1.727-1.741A4.751,4.751,0,0,1,557.455,5.6Z" transform="translate(-555.9 -2.2)"/>
        </g>
        <path id="Path_44" data-name="Path 44" class="cls-2" d="M559.1,33.317h-.173l-1.123-3.831A11.34,11.34,0,1,0,539.5,20.518a11.516,11.516,0,0,0,4.318,8.968L542.7,33.317h-.173a1.185,1.185,0,0,0-1.209,1.219V34.8a1.185,1.185,0,0,0,1.209,1.219H559.1a1.185,1.185,0,0,0,1.209-1.219v-.261A1.138,1.138,0,0,0,559.1,33.317Zm-18.827-12.8a10.536,10.536,0,1,1,10.536,10.535A10.547,10.547,0,0,1,540.277,20.518Zm4.232,9.49a11.333,11.333,0,0,0,12.609,0l.95,3.308H543.559Z" transform="translate(-535.355 -1.016)"/>
      </g>
    </g>
  </g>
</svg>
