<svg id="Group_230" data-name="Group 230" xmlns="http://www.w3.org/2000/svg" viewBox="239.9 240.2 46 35">
  <defs>
    <style>
      .cls-1 {
        fill: #d9d9d9;
      }

      .cls-2 {
        fill: #666;
      }
    </style>
  </defs>
  <g id="Group_73" data-name="Group 73" transform="translate(73 240.2)">
    <g id="Group_71" data-name="Group 71" transform="translate(166.9 3.675)">
      <g id="Group_55" data-name="Group 55" transform="translate(12.87 0.35)">
        <g id="Group_52" data-name="Group 52" transform="translate(2.522)">
          <g id="Group_51" data-name="Group 51">
            <rect id="Rectangle_17" data-name="Rectangle 17" class="cls-1" width="3.826" height="0.875"/>
          </g>
        </g>
        <g id="Group_54" data-name="Group 54">
          <g id="Group_53" data-name="Group 53">
            <rect id="Rectangle_18" data-name="Rectangle 18" class="cls-1" width="1.304" height="0.875"/>
          </g>
        </g>
      </g>
      <g id="Group_60" data-name="Group 60" transform="translate(0 9.013)">
        <g id="Group_57" data-name="Group 57" transform="translate(1.826)">
          <g id="Group_56" data-name="Group 56">
            <rect id="Rectangle_19" data-name="Rectangle 19" class="cls-1" width="3.739" height="0.963"/>
          </g>
        </g>
        <g id="Group_59" data-name="Group 59">
          <g id="Group_58" data-name="Group 58">
            <rect id="Rectangle_20" data-name="Rectangle 20" class="cls-1" width="0.957" height="0.963"/>
          </g>
        </g>
      </g>
      <g id="Group_65" data-name="Group 65" transform="translate(35.565)">
        <g id="Group_62" data-name="Group 62">
          <g id="Group_61" data-name="Group 61">
            <rect id="Rectangle_21" data-name="Rectangle 21" class="cls-1" width="4.522" height="1.05"/>
          </g>
        </g>
        <g id="Group_64" data-name="Group 64" transform="translate(6)">
          <g id="Group_63" data-name="Group 63">
            <rect id="Rectangle_22" data-name="Rectangle 22" class="cls-1" width="1.478" height="1.05"/>
          </g>
        </g>
      </g>
      <g id="Group_70" data-name="Group 70" transform="translate(40.174 21)">
        <g id="Group_67" data-name="Group 67">
          <g id="Group_66" data-name="Group 66">
            <rect id="Rectangle_23" data-name="Rectangle 23" class="cls-1" width="3.913" height="0.963"/>
          </g>
        </g>
        <g id="Group_69" data-name="Group 69" transform="translate(4.87)">
          <g id="Group_68" data-name="Group 68">
            <rect id="Rectangle_24" data-name="Rectangle 24" class="cls-1" width="0.957" height="0.963"/>
          </g>
        </g>
      </g>
    </g>
    <g id="Group_72" data-name="Group 72" transform="translate(174.03 0)">
      <path id="Path_25" data-name="Path 25" class="cls-2" d="M175.448,35c-.087,0-.174,0-.174-.088-.087-.087-.174-.175-.174-.262a.323.323,0,0,1,.087-.263l10-14.175a.451.451,0,0,1,.348-.175c.087,0,.261.088.261.175l1.739,2.625L195.1,12.075V10.15h-.174a5.248,5.248,0,0,1-3.217-1.662,5.2,5.2,0,0,1,.348-7.175A4.858,4.858,0,0,1,195.448,0a4.984,4.984,0,0,1,3.739,1.663l.087.087h7.913a.318.318,0,0,1,.261.087c.174.087.174.35.087.525l-2.174,2.713,2.174,2.8a.323.323,0,0,1,.087.263.375.375,0,0,1-.348.35h-7.913l-.087.088a5.248,5.248,0,0,1-3.217,1.662h-.174v1.925L209.8,34.388c0,.087.087.087.087.175a.375.375,0,0,1-.348.35H175.448Zm12.435-11.463,4.783,7.175h4.522a.318.318,0,0,1,.261.087l3.391,3.413h7.913l-13.391-21.35-5.478,7.787h6.087a.318.318,0,0,1,.261.088l2.261,2.275-.522.525L195.8,21.35h-6.087v-.525ZM176.23,34.3h23.652L197.1,31.5h-4.522a.658.658,0,0,1-.348-.175l-6.783-10.237-5.13,7.263h2.174a.318.318,0,0,1,.261.087l1.565,1.575-.522.525-1.478-1.488H179.8ZM195.448.7A4.375,4.375,0,1,0,199.8,5.075,4.374,4.374,0,0,0,195.448.7Z" transform="translate(-175.1 0)"/>
      <path id="Path_26" data-name="Path 26" class="cls-2" d="M177.4,24.538l5.13-6.913c.087-.087.174-.175.261-.175h3.3l3.391-4.375-1.13.175-.087-.7,2.087-.35h.087a.319.319,0,0,1,.348.35l.348,2.1-.7.088-.261-1.312-3.565,4.637c-.087.088-.174.175-.261.175h-3.3l-5.043,6.738Z" transform="translate(-175.4 -1.525)"/>
      <path id="Path_27" data-name="Path 27" class="cls-2" d="M197.916,8.65V8.038l-.174-.088A1.652,1.652,0,0,1,196.7,6.725h.783a.836.836,0,0,0,.783.613.788.788,0,0,0,0-1.575,1.6,1.6,0,0,1-1.478-1.05,1.533,1.533,0,0,1,.087-1.225,1.908,1.908,0,0,1,.87-.788l.174-.088V2h.7v.612l.174.087a1.652,1.652,0,0,1,1.043,1.225h-.783a.836.836,0,0,0-.783-.613.788.788,0,0,0,0,1.575,1.6,1.6,0,0,1,1.478,1.05,1.533,1.533,0,0,1-.087,1.225,1.908,1.908,0,0,1-.87.788l-.174.087V8.65Z" transform="translate(-177.916 -0.25)"/>
      <rect id="Rectangle_25" data-name="Rectangle 25" class="cls-2" width="0.696" height="0.7" transform="translate(22.87 4.725)"/>
      <rect id="Rectangle_26" data-name="Rectangle 26" class="cls-2" width="0.696" height="0.7" transform="translate(17.043 4.725)"/>
    </g>
  </g>
</svg>
