<svg id="Group_231" data-name="Group 231" xmlns="http://www.w3.org/2000/svg" viewBox="311.9 240.2 48 35">
  <defs>
    <style>
      .cls-1 {
        fill: #d9d9d9;
      }

      .cls-2 {
        fill: #666;
      }
    </style>
  </defs>
  <g id="Group_95" data-name="Group 95" transform="translate(73 240.2)">
    <g id="Group_94" data-name="Group 94" transform="translate(238.9)">
      <g id="Group_78" data-name="Group 78" transform="translate(12.567 0.262)">
        <g id="Group_75" data-name="Group 75" transform="translate(2.444)">
          <g id="Group_74" data-name="Group 74">
            <rect id="Rectangle_27" data-name="Rectangle 27" class="cls-1" width="3.665" height="0.872"/>
          </g>
        </g>
        <g id="Group_77" data-name="Group 77">
          <g id="Group_76" data-name="Group 76">
            <rect id="Rectangle_28" data-name="Rectangle 28" class="cls-1" width="1.222" height="0.872"/>
          </g>
        </g>
      </g>
      <g id="Group_83" data-name="Group 83" transform="translate(0 8.724)">
        <g id="Group_80" data-name="Group 80" transform="translate(1.833)">
          <g id="Group_79" data-name="Group 79">
            <rect id="Rectangle_29" data-name="Rectangle 29" class="cls-1" width="3.665" height="0.96"/>
          </g>
        </g>
        <g id="Group_82" data-name="Group 82">
          <g id="Group_81" data-name="Group 81">
            <rect id="Rectangle_30" data-name="Rectangle 30" class="cls-1" width="0.96" height="0.96"/>
          </g>
        </g>
      </g>
      <g id="Group_88" data-name="Group 88" transform="translate(34.647)">
        <g id="Group_85" data-name="Group 85">
          <g id="Group_84" data-name="Group 84">
            <rect id="Rectangle_31" data-name="Rectangle 31" class="cls-1" width="4.364" height="1.047"/>
          </g>
        </g>
        <g id="Group_87" data-name="Group 87" transform="translate(5.847)">
          <g id="Group_86" data-name="Group 86">
            <rect id="Rectangle_32" data-name="Rectangle 32" class="cls-1" width="1.484" height="1.047"/>
          </g>
        </g>
      </g>
      <g id="Group_93" data-name="Group 93" transform="translate(42.24 22.247)">
        <g id="Group_90" data-name="Group 90">
          <g id="Group_89" data-name="Group 89">
            <rect id="Rectangle_33" data-name="Rectangle 33" class="cls-1" width="3.84" height="0.96"/>
          </g>
        </g>
        <g id="Group_92" data-name="Group 92" transform="translate(4.8)">
          <g id="Group_91" data-name="Group 91">
            <rect id="Rectangle_34" data-name="Rectangle 34" class="cls-1" width="0.96" height="0.96"/>
          </g>
        </g>
      </g>
    </g>
    <path id="Path_28" data-name="Path 28" class="cls-2" d="M284.053,10.066a3.907,3.907,0,0,0-.96-2.181,5.77,5.77,0,0,0-2.356-.7,27.093,27.093,0,0,0-5.149-.262h-1.309a1.116,1.116,0,0,1-.873-.872,1.449,1.449,0,0,0-.96-.7,1.475,1.475,0,0,1-.436-.174c-.175-.087-.262-.174-.262-.349-.087-.436-.262-.7-.611-.785a4.633,4.633,0,0,0-.96-.262c-.087,0-.349-.087-.873-.174a1.913,1.913,0,0,1-.7-.262,2.481,2.481,0,0,0-1.484-.785,13.308,13.308,0,0,0-1.658-.262c-.262-.087-.7-.087-1.222-.174a4.385,4.385,0,0,1-1.135-.436,1.418,1.418,0,0,0-.873,0l-2.705.523a3.3,3.3,0,0,0-1.658.7,3.759,3.759,0,0,0-.262,1.745v.349c.087.7-.175,1.047-.96,1.047a23.694,23.694,0,0,0-3.142.174,20.3,20.3,0,0,1-3.142.087,2.836,2.836,0,0,0-2.182.523,4.828,4.828,0,0,0-1.135,1.919,14.166,14.166,0,0,0-.349,3.577c0,1.57.087,2.7.087,3.49a1.676,1.676,0,0,0,.785,1.4A8.524,8.524,0,0,1,249.58,19.4a3.5,3.5,0,0,1,.262,2.966,4.69,4.69,0,0,0-.087,1.4v.523a2.58,2.58,0,0,1,.175.872v.611c.087.087.087.174.087.349a3,3,0,0,0-.087.785l.087,5.932c0,.523,0,.785.087.872.087.174.436.262.785.262.436,0,1.745.087,3.84.087h1.222a4.423,4.423,0,0,1,1.135.174c.611.262.873.087.873-.611v-3.4a19.266,19.266,0,0,0-.262-3.4,6.447,6.447,0,0,1,.175-2.879,15.55,15.55,0,0,1,1.222-2.617c.175-.262.349-.349.611-.262,0,.262-.087,1.57-.175,3.839-.087,1.57-.087,2.792-.087,3.839.087,2.181.087,4.013,0,5.583,0,.7.262.96.873.872a21.4,21.4,0,0,1,2.618-.087,20.65,20.65,0,0,0,2.618-.087c1.047-.087,1.571-.174,1.658-.174h.262c.087,0,.262-.087.349-.087a1.7,1.7,0,0,0,.7-.087h.436c0-.349.087-.785.087-1.221,0-.523.087-1.221.087-2.181.087-.436.087-1.832.175-4.188a25.05,25.05,0,0,1,.349-4.188c.087-.349.175-.872.349-1.658a7.286,7.286,0,0,1,.7-1.658,7.258,7.258,0,0,1,1.135,1.57,17.462,17.462,0,0,0,.873,1.57,3.677,3.677,0,0,1,.436,2.53,7.479,7.479,0,0,1-.262,1.134,2.094,2.094,0,0,0,0,1.047,3.854,3.854,0,0,1,.087,1.483v1.4a7.885,7.885,0,0,1,0,2.094v1.483a3.1,3.1,0,0,1,.873.174,4.826,4.826,0,0,1,.785-.087l3.665-.087a2.356,2.356,0,0,0,1.309-.349c.087-.174.175-.349,0-.523l-.175-.523a.32.32,0,0,1,.087-.262,24.008,24.008,0,0,0,.524-3.839c0-.872.087-2.181,0-3.839a3.889,3.889,0,0,1,1.135-3.053c.262-.262.7-.785,1.309-1.483.524-.611.96-1.134,1.309-1.483a2.5,2.5,0,0,0,.873-1.919A23.778,23.778,0,0,0,284.053,10.066Zm-10.124-.349a4.38,4.38,0,0,1,.436-2.007c.175-.174.873-.174,2.007-.087l4.887.523a3.286,3.286,0,0,1,1.571.611,2.6,2.6,0,0,1,.611,1.57c.087.611.175,1.57.262,2.792a3.417,3.417,0,0,1-.175,1.134,1.726,1.726,0,0,1-.873.611c-.349.174-.7,0-1.047-.349a3.607,3.607,0,0,1-.349-1.832l.175-2.268c.087-.523,0-.7-.349-.785-.175,0-.349,0-.436.174a1.24,1.24,0,0,0-.175.523c0,.436.087,1.134.087,2.007v1.309a4.989,4.989,0,0,0,.087,1.221,1.619,1.619,0,0,1-.611.174h-.524c-.524,0-.785-.087-.873-.262-.087-.087-.087-.436,0-.96V12.77A3.5,3.5,0,0,1,278.38,9.8c.087-.349,0-.523-.349-.611a.654.654,0,0,0-.436.087.453.453,0,0,0-.175.349V11.2c0,.523-.262.785-.785.611a5.646,5.646,0,0,1-.873-.174c-.611,0-.785-.349-.611-.872a.678.678,0,0,0-.175-.7.479.479,0,0,0-.524.349c-.087.349-.175.436-.349.523-.087,0-.087-.087-.087-.174V9.717Zm-2.095-3.664a1.5,1.5,0,0,1,1.4,1.4,21.276,21.276,0,0,1-.087,2.268c-.175,1.047-.262,1.745-.349,2.268s-.436.7-1.047.523c-.436-.174-.611-.436-.436-.785A16.512,16.512,0,0,0,271.835,6.053ZM263.98,3.784q0-.916,1.047-.785h.262a4.054,4.054,0,0,1,2.182.785,3.431,3.431,0,0,1,.524,2.268,16.18,16.18,0,0,1-.087,1.919,16.428,16.428,0,0,1-.262,2.007A2.021,2.021,0,0,0,266.6,8.321a4.585,4.585,0,0,0-1.833-.523.8.8,0,0,1-.785-.872Zm-5.585,3.49a6.916,6.916,0,0,0,.175-1.483V4.308a1.27,1.27,0,0,1,1.047-1.4,12.678,12.678,0,0,1,2.444-.349,2.336,2.336,0,0,1,.96.174,1.26,1.26,0,0,1,.262.96V5.442a4.373,4.373,0,0,1-.262,2.007,3.882,3.882,0,0,1-1.92.436l-1.92.262a1.1,1.1,0,0,1-.785-.087A1.179,1.179,0,0,1,258.395,7.274ZM256.824,33.1l-.087-.174a.32.32,0,0,1,.349-.349c.087,0,.087.087.087.262C257.26,33.01,257.085,33.1,256.824,33.1Zm2.269-13.086c-.262.349-.611.872-1.047,1.483a6.018,6.018,0,0,0-1.135,4.886A19.117,19.117,0,0,1,257,28.91a10.375,10.375,0,0,0,.175,2.53.524.524,0,0,1-.087.349.453.453,0,0,1-.349.174,7.136,7.136,0,0,0-.96.872,1.357,1.357,0,0,1-1.309.174,6.877,6.877,0,0,1,1.047-1.221,3.319,3.319,0,0,0,.873-1.483,1.077,1.077,0,0,0-.7.349,5.949,5.949,0,0,0-.436.611,5.9,5.9,0,0,1-1.309,1.309,2.306,2.306,0,0,1-2.007.087,6.669,6.669,0,0,1,1.571-2.268,15.962,15.962,0,0,0,2.007-2.181,2.632,2.632,0,0,0-1.309.785,17.628,17.628,0,0,0-2.618,3.228.366.366,0,0,1-.524.262q-.262,0-.262-.523a4.289,4.289,0,0,1,.262-1.745,2.647,2.647,0,0,1,1.135-1.483,5.573,5.573,0,0,0,2.007-2.617,9.7,9.7,0,0,0-1.484,1.4,6.889,6.889,0,0,1-1.571,1.4,2.706,2.706,0,0,1-.262-1.57,2.12,2.12,0,0,1,.785-1.221,7.612,7.612,0,0,0,1.222-1.4c.262-.262.175-.611-.349-.785a2.812,2.812,0,0,1-1.571,1.832,6.047,6.047,0,0,1-.262-1.4,1.855,1.855,0,0,1,.611-1.309,1.818,1.818,0,0,0,.611-1.309c-.262,0-.436.174-.611.436a.832.832,0,0,1-.611.523,4.041,4.041,0,0,1,.087-2.094,2.059,2.059,0,0,0-.349-2.268,14.366,14.366,0,0,0-1.309-1.483,6,6,0,0,1-1.135-1.832,1.55,1.55,0,0,1,.436-2.007c.436-.349.611-.611.611-.96-.262-.174-.436-.087-.7,0a.77.77,0,0,1-.7.174,9.7,9.7,0,0,1,.873-4.624c.175-.349.524-.523,1.135-.611l6.982-.785c.524-.087.873,0,.96.262a2.414,2.414,0,0,1,.087.785.883.883,0,0,1-.349.611,2.72,2.72,0,0,0-1.4,1.4A5.008,5.008,0,0,0,255.6,11.2c0,.436-.175.611-.524.611-.262,0-.349-.262-.349-.611,0-.262-.087-.611-.087-1.047V9.106c.087-.523-.087-.785-.436-.872a3.521,3.521,0,0,0-.349,2.617,2.113,2.113,0,0,1,0,.785,1.257,1.257,0,0,1-.785.174H252.9a3.843,3.843,0,0,1-1.571-.174c-.175-.087-.175-.611-.087-1.483V8.931c0-.262-.175-.349-.436-.349-.349,0-.436.174-.436.436a2.9,2.9,0,0,1,.087,1.221c0,.436-.087.785-.087.96a.7.7,0,0,1-.785.523q-.393,0-.262.523c0,.262.262.436.7.436l.873.087c.087,0,.785.087,2.007.174a5.283,5.283,0,0,0,2.095-.087,3.041,3.041,0,0,1-.262,2.268,2.458,2.458,0,0,1-2.007.96c-.349,0-.611.087-.7.262-.262.262-.175.523.087.611h.611a2.218,2.218,0,0,1,1.833.611,2.964,2.964,0,0,1,.524,1.919v.262c0,.087,0,.174.087.174a1.33,1.33,0,0,0,.611-1.047,2.286,2.286,0,0,0-.175-1.309,4.027,4.027,0,0,0-.611-.872.524.524,0,0,1-.087-.349l.175-.349c.175-.262.349-.262.611,0l3.316,2.966C259.442,19.313,259.442,19.662,259.093,20.011Zm8.9,13.959c-.175.174-.349.174-.7.087a.883.883,0,0,1,.349-.611c.262-.174.524-.262.611-.436C268.344,33.534,268.256,33.883,267.995,33.97Zm15.36-16.052a14.36,14.36,0,0,1-1.309,1.483,10.461,10.461,0,0,1-1.4,1.4,2.382,2.382,0,0,0-.785,1.047h0l-5.76,1.832h0a4.924,4.924,0,0,0-.524-1.745c-.087-.174-.611-.96-1.571-2.268a2.967,2.967,0,0,1-.7-1.658,3.322,3.322,0,0,1,.524-1.658,5.736,5.736,0,0,0,.524-1.047,2.911,2.911,0,0,0-.087-1.483c-.7,1.309-1.484,2.966-2.356,5.06a19.056,19.056,0,0,0-1.222,7.067c-.087,2.53-.175,4.449-.175,5.671a1.293,1.293,0,0,1-.087.611.589.589,0,0,1-.524.349c-.175,0-.262.087-.349.262l-.262.349a3.481,3.481,0,0,1-1.135.872,4.89,4.89,0,0,1-1.658,0,5.125,5.125,0,0,1,1.047-1.221,3.461,3.461,0,0,0,.96-1.309.411.411,0,0,0-.524.087,1.2,1.2,0,0,0-.262.349l-.873.872a6.367,6.367,0,0,1-.873.785,2.735,2.735,0,0,1-2.531.436,17.484,17.484,0,0,1,1.92-2.094,18.27,18.27,0,0,0,1.92-2.007,25.091,25.091,0,0,0-4.887,4.188,16.718,16.718,0,0,1-.087-1.745,2.472,2.472,0,0,1,.785-1.57l2.182-2.007q.393-.523.524-.523a1.407,1.407,0,0,0,.262-.785l-3.578,3.228a2.16,2.16,0,0,1,.524-2.443c.262-.262,1.047-1.221,2.444-2.966a3,3,0,0,0-1.571,1.221,6.12,6.12,0,0,1-1.222,1.309,4.609,4.609,0,0,1-.175-1.4,1.766,1.766,0,0,1,.7-1.221,13.429,13.429,0,0,0,1.047-1.134.461.461,0,0,0,.087-.7.667.667,0,0,0-.436-.174c-.175,0-.262,0-.349.087v.436a.792.792,0,0,1-.262.611l-.524.523a6.8,6.8,0,0,1-.262-1.919,9.95,9.95,0,0,1,.262-1.832,3.025,3.025,0,0,0-1.222-3.228,15.333,15.333,0,0,1-2.095-1.832,2.918,2.918,0,0,1-1.135-2.7l.262-3.053a1.229,1.229,0,0,1,.873-1.134,3.264,3.264,0,0,1,1.309-.436c.611,0,1.571-.087,2.967-.174a20.188,20.188,0,0,1,2.967-.174,2.555,2.555,0,0,1,1.833.785,2.249,2.249,0,0,1,.175,2.007.863.863,0,0,1-.436.611c-.436.262-1.135.7-2.095,1.221a3.471,3.471,0,0,1-2.444.349h-.785c-.087,0-.175.087-.262.174a.845.845,0,0,0,.7.611,4.363,4.363,0,0,0,.96.087,4.321,4.321,0,0,1,1.484.174,3.169,3.169,0,0,1,.7,1.4l.7,2.268a10.371,10.371,0,0,0,.349-1.221,4.39,4.39,0,0,0-.349-1.4,2.891,2.891,0,0,1-.262-1.483,2.592,2.592,0,0,1,1.222-.872,2.664,2.664,0,0,0,.785-.436,1.81,1.81,0,0,0,.524-.872.589.589,0,0,1,.349-.523,1.646,1.646,0,0,0,1.047-.96,3.257,3.257,0,0,0,.087-1.4c0-.7,0-1.745.087-3.228a1.936,1.936,0,0,1,.087-.785.584.584,0,0,1,.611-.349c.436,0,.7.087.873.087a1.211,1.211,0,0,1,.611.7c.175.872.262,1.4.262,1.483,0,1.047-.087,2.094-.175,3.053a1.362,1.362,0,0,1-1.4,1.309,2.457,2.457,0,0,1-.7-.087.793.793,0,0,0-.611.262c0,.262.175.436.524.436a9.515,9.515,0,0,0,1.047.087,1.323,1.323,0,0,1,.785.872,1.076,1.076,0,0,0,1.309.7,1.694,1.694,0,0,0,1.484-.785c.087-.174.175-.262.175-.349a.347.347,0,0,1,.436-.087l2.967.7c.611.087.785.523.611,1.134A4.266,4.266,0,0,1,276.9,16a2.974,2.974,0,0,1-2.007.436l-.96-.087h-.349c-.087,0-.175.174-.175.262q0,.393.524.523c1.222.087,2.007.96,2.356,2.443,0,.262.087.436.087.611a.527.527,0,0,0,.262.523,3.059,3.059,0,0,0-.087-2.617c-.087-.262-.175-.436-.087-.611a6.775,6.775,0,0,1,.349-.611,3.214,3.214,0,0,1,1.658-.96A15.59,15.59,0,0,1,280.3,16a6.755,6.755,0,0,0,1.833.087,10.055,10.055,0,0,0,1.833-.523A3.04,3.04,0,0,1,283.355,17.917Z" transform="translate(-0.993 -0.207)"/>
  </g>
</svg>
