<svg id="Group_233" data-name="Group 233" xmlns="http://www.w3.org/2000/svg" viewBox="458.8 240.2 41 35">
  <defs>
    <style>
      .cls-1 {
        fill: #d9d9d9;
      }

      .cls-2 {
        fill: #666;
      }
    </style>
  </defs>
  <g id="Group_225" data-name="Group 225" transform="translate(73 240.2)">
    <g id="Group_223" data-name="Group 223" transform="translate(385.8 1.925)">
      <g id="Group_207" data-name="Group 207" transform="translate(0 5.775)">
        <g id="Group_204" data-name="Group 204" transform="translate(2.268)">
          <g id="Group_203" data-name="Group 203">
            <rect id="Rectangle_67" data-name="Rectangle 67" class="cls-1" width="3.402" height="0.787"/>
          </g>
        </g>
        <g id="Group_206" data-name="Group 206">
          <g id="Group_205" data-name="Group 205">
            <rect id="Rectangle_68" data-name="Rectangle 68" class="cls-1" width="1.134" height="0.787"/>
          </g>
        </g>
      </g>
      <g id="Group_212" data-name="Group 212" transform="translate(6.804 30.625)">
        <g id="Group_209" data-name="Group 209" transform="translate(1.657)">
          <g id="Group_208" data-name="Group 208">
            <rect id="Rectangle_69" data-name="Rectangle 69" class="cls-1" width="3.402" height="0.875"/>
          </g>
        </g>
        <g id="Group_211" data-name="Group 211">
          <g id="Group_210" data-name="Group 210">
            <rect id="Rectangle_70" data-name="Rectangle 70" class="cls-1" width="0.872" height="0.875"/>
          </g>
        </g>
      </g>
      <g id="Group_217" data-name="Group 217" transform="translate(31.143)">
        <g id="Group_214" data-name="Group 214">
          <g id="Group_213" data-name="Group 213">
            <rect id="Rectangle_71" data-name="Rectangle 71" class="cls-1" width="4.013" height="0.963"/>
          </g>
        </g>
        <g id="Group_216" data-name="Group 216" transform="translate(5.409)">
          <g id="Group_215" data-name="Group 215">
            <rect id="Rectangle_72" data-name="Rectangle 72" class="cls-1" width="1.309" height="0.963"/>
          </g>
        </g>
      </g>
      <g id="Group_222" data-name="Group 222" transform="translate(35.766 24.15)">
        <g id="Group_219" data-name="Group 219">
          <g id="Group_218" data-name="Group 218">
            <rect id="Rectangle_73" data-name="Rectangle 73" class="cls-1" width="3.577" height="0.875"/>
          </g>
        </g>
        <g id="Group_221" data-name="Group 221" transform="translate(4.362)">
          <g id="Group_220" data-name="Group 220">
            <rect id="Rectangle_74" data-name="Rectangle 74" class="cls-1" width="0.872" height="0.875"/>
          </g>
        </g>
      </g>
    </g>
    <g id="Group_224" data-name="Group 224" transform="translate(389.202)">
      <path id="Path_50" data-name="Path 50" class="cls-2" d="M400.1.7a2.38,2.38,0,0,0-1.657-.7h-1.657a2.04,2.04,0,0,0-1.57.7,2.314,2.314,0,0,0-.611,1.662l.262,3.763A2.909,2.909,0,0,0,396.345,8.4a2.456,2.456,0,0,0,1.309.35,2.266,2.266,0,0,0,1.309-.35,2.78,2.78,0,0,0,1.483-2.275l.262-3.763A2.768,2.768,0,0,0,400.1.7Z" transform="translate(-390.326)"/>
      <path id="Path_51" data-name="Path 51" class="cls-2" d="M403.832,16.5h-13.7a.661.661,0,0,1-.349-.175.527.527,0,0,1-.087-.35l.262-1.488a4.489,4.489,0,0,1,3.489-3.5,2.408,2.408,0,0,1,.785-.088h.785a.32.32,0,0,1,.262.088l1.4,1.313a.4.4,0,0,0,.436,0l1.4-1.312a.32.32,0,0,1,.262-.088h.785a2.408,2.408,0,0,1,.785.088,4.489,4.489,0,0,1,3.489,3.5l.262,1.488a.527.527,0,0,1-.087.35C404.094,16.5,403.919,16.5,403.832,16.5Zm-9.509-4.637a1.29,1.29,0,0,0-.611.088,3.545,3.545,0,0,0-2.792,2.8l-.087.7a.309.309,0,0,0,.349.35h11.951a.309.309,0,0,0,.349-.35l-.087-.7a3.545,3.545,0,0,0-2.792-2.8c-.174,0-.436-.088-.611-.088h-.523c-.087,0-.174,0-.174.088l-1.657,1.662a.421.421,0,0,1-.611,0L395.37,11.95a.27.27,0,0,0-.174-.088Z" transform="translate(-389.7 -1.362)"/>
      <path id="Path_52" data-name="Path 52" class="cls-2" d="M419.553,31.25a2.266,2.266,0,0,1-1.309-.35,2.78,2.78,0,0,1-1.483-2.275l-.262-3.763a2.314,2.314,0,0,1,.611-1.663,2.342,2.342,0,0,1,1.57-.7h1.657a2.38,2.38,0,0,1,1.657.7,2.314,2.314,0,0,1,.611,1.663l-.262,3.762a2.909,2.909,0,0,1-1.483,2.275A2.266,2.266,0,0,1,419.553,31.25Zm.7-5.775c-.087,0-.174,0-.174.087a4.679,4.679,0,0,1-2.268.875c-.174,0-.262.175-.262.35l.087,1.925a2.012,2.012,0,0,0,1.047,1.575,1.885,1.885,0,0,0,1.919,0,2.012,2.012,0,0,0,1.047-1.575l.174-2.362c0-.175-.087-.263-.262-.35a4.046,4.046,0,0,1-.785-.262c-.087-.088-.174-.088-.262-.175A.674.674,0,0,0,420.251,25.475Zm-1.483-2.013a1.607,1.607,0,0,0-1.047.438,1.127,1.127,0,0,0-.349,1.05v.35a.306.306,0,0,0,.087.175c.087,0,.087.087.174.087a3.116,3.116,0,0,0,2.268-1.137v-.088l.174-.525V23.55a.32.32,0,0,0-.262-.088h-1.047Zm2.443.438h0c-.174,0-.262.088-.262.175l-.174.438c-.087.175,0,.262.087.35a.086.086,0,0,1,.087.087c.087,0,.174.088.349.175a.309.309,0,0,0,.349-.35,1.414,1.414,0,0,0-.262-.787C421.385,23.9,421.3,23.9,421.211,23.9Zm-.611-.612c0,.087.087.087.087.175a.27.27,0,0,1,.174-.087C420.862,23.288,420.687,23.288,420.6,23.288Z" transform="translate(-393.121 -2.812)"/>
      <path id="Path_53" data-name="Path 53" class="cls-2" d="M425.732,39.2h-13.7a.66.66,0,0,1-.349-.175c-.087-.088-.087-.175-.087-.35l.262-1.488a4.489,4.489,0,0,1,3.489-3.5,2.408,2.408,0,0,1,.785-.087h.785a.32.32,0,0,1,.262.087l1.4,1.313a.4.4,0,0,0,.436,0l1.4-1.312a.32.32,0,0,1,.262-.087h.785a2.409,2.409,0,0,1,.785.087,4.489,4.489,0,0,1,3.489,3.5l.262,1.488a.527.527,0,0,1-.087.35C425.994,39.113,425.906,39.2,425.732,39.2Zm-9.508-4.725a1.48,1.48,0,0,0-.611.087,3.545,3.545,0,0,0-2.792,2.8l-.087.7a.309.309,0,0,0,.349.35h11.951a.309.309,0,0,0,.349-.35l-.087-.7a3.545,3.545,0,0,0-2.792-2.8c-.174,0-.436-.087-.611-.087h-.523c-.087,0-.175,0-.175.087l-1.657,1.663a.421.421,0,0,1-.611,0l-1.657-1.663a.27.27,0,0,0-.174-.087Z" transform="translate(-392.496 -4.2)"/>
      <path id="Path_54" data-name="Path 54" class="cls-2" d="M424.836,20.975a.413.413,0,0,1-.436-.437v-.7a.322.322,0,0,1,.087-.263c.087-.087.174-.175.262-.175h0a.4.4,0,0,1,.436.35v.788A.4.4,0,0,1,424.836,20.975Z" transform="translate(-394.13 -2.425)"/>
      <path id="Path_55" data-name="Path 55" class="cls-2" d="M421.911,14.519h0a.48.48,0,0,1-.436-.263,13.771,13.771,0,0,0-12.387-9.625h0c-.174,0-.262.088-.262.175-.087.087,0,.262.087.35l.436.438a.322.322,0,0,1,.087.263.322.322,0,0,1-.087.262.421.421,0,0,1-.611,0l-1.657-1.662a.424.424,0,0,1,0-.612l1.657-1.663a.432.432,0,0,1,.611.612l-.436.438c-.087.087-.087.175-.087.35,0,.087.174.175.262.175a14.647,14.647,0,0,1,7.938,2.887,15.446,15.446,0,0,1,5.321,7.35v.35c-.087.088-.174.175-.262.175ZM407.691,4.194l.523.525a.322.322,0,0,1,.087-.263,1.208,1.208,0,0,1,.262-.35c-.087-.088-.174-.263-.262-.35,0-.087,0-.087-.087-.175Z" transform="translate(-391.902 -0.256)"/>
      <path id="Path_56" data-name="Path 56" class="cls-2" d="M405.008,36.938a.373.373,0,0,1-.262-.612l.349-.35c.087-.087.087-.175.087-.35,0-.088-.175-.175-.262-.175A14.859,14.859,0,0,1,391.4,20.837a.436.436,0,1,1,.872,0,14.016,14.016,0,0,0,12.736,13.825h0c.174,0,.262-.087.262-.175.087-.087,0-.262-.087-.35l-.523-.525A.432.432,0,1,1,405.27,33l1.657,1.662a.439.439,0,0,1,0,.525L405.27,36.85C405.183,36.85,405.1,36.938,405.008,36.938Zm.436-1.925a1.206,1.206,0,0,1,.262.35v.175l.611-.612-.523-.525a.322.322,0,0,1-.087.262A.469.469,0,0,1,405.445,35.012Z" transform="translate(-389.917 -2.55)"/>
    </g>
  </g>
</svg>
