<svg id="Group_234" data-name="Group 234" xmlns="http://www.w3.org/2000/svg" viewBox="530.5 240.175 45 35">
  <defs>
    <style>
      .cls-1 {
        fill: #d9d9d9;
      }

      .cls-2 {
        fill: #666;
      }
    </style>
  </defs>
  <g id="Group_146" data-name="Group 146" transform="translate(73 240.2)">
    <g id="Group_144" data-name="Group 144" transform="translate(457.5 0.871)">
      <g id="Group_128" data-name="Group 128" transform="translate(0 6.121)">
        <g id="Group_125" data-name="Group 125" transform="translate(2.387)">
          <g id="Group_124" data-name="Group 124">
            <rect id="Rectangle_43" data-name="Rectangle 43" class="cls-1" width="3.536" height="0.787"/>
          </g>
        </g>
        <g id="Group_127" data-name="Group 127">
          <g id="Group_126" data-name="Group 126">
            <rect id="Rectangle_44" data-name="Rectangle 44" class="cls-1" width="1.149" height="0.787"/>
          </g>
        </g>
      </g>
      <g id="Group_133" data-name="Group 133" transform="translate(3.271 29.557)">
        <g id="Group_130" data-name="Group 130" transform="translate(1.768)">
          <g id="Group_129" data-name="Group 129">
            <rect id="Rectangle_45" data-name="Rectangle 45" class="cls-1" width="3.536" height="0.874"/>
          </g>
        </g>
        <g id="Group_132" data-name="Group 132">
          <g id="Group_131" data-name="Group 131">
            <rect id="Rectangle_46" data-name="Rectangle 46" class="cls-1" width="0.884" height="0.874"/>
          </g>
        </g>
      </g>
      <g id="Group_138" data-name="Group 138" transform="translate(32.446)">
        <g id="Group_135" data-name="Group 135">
          <g id="Group_134" data-name="Group 134">
            <rect id="Rectangle_47" data-name="Rectangle 47" class="cls-1" width="4.244" height="0.962"/>
          </g>
        </g>
        <g id="Group_137" data-name="Group 137" transform="translate(5.57)">
          <g id="Group_136" data-name="Group 136">
            <rect id="Rectangle_48" data-name="Rectangle 48" class="cls-1" width="1.415" height="0.962"/>
          </g>
        </g>
      </g>
      <g id="Group_143" data-name="Group 143" transform="translate(39.519 22.124)">
        <g id="Group_140" data-name="Group 140">
          <g id="Group_139" data-name="Group 139">
            <rect id="Rectangle_49" data-name="Rectangle 49" class="cls-1" width="3.713" height="0.874"/>
          </g>
        </g>
        <g id="Group_142" data-name="Group 142" transform="translate(4.597)">
          <g id="Group_141" data-name="Group 141">
            <rect id="Rectangle_50" data-name="Rectangle 50" class="cls-1" width="0.884" height="0.874"/>
          </g>
        </g>
      </g>
    </g>
    <g id="Group_145" data-name="Group 145" transform="translate(464.484 -0.025)">
      <path id="Path_36" data-name="Path 36" class="cls-2" d="M495.566,3.7H483.1V5.012h3.271V8.859a.6.6,0,0,0,.619.612h5.216V8.247h-4.6V5.012h7.161V21.189H486.9V22.5h7.868v9.706h-1.945v1.312h2.652a.6.6,0,0,0,.619-.612V4.312A.494.494,0,0,0,495.566,3.7Z" transform="translate(-467.452 -0.443)"/>
      <path id="Path_37" data-name="Path 37" class="cls-2" d="M489.016,24.569H479.2V18.71h11.228a1.277,1.277,0,0,0,1.238-1.312V11.54a.6.6,0,0,0-.619-.612H476.639V2.183l2.829,2.8.884-.874L476.374.172a.593.593,0,0,0-.884,0L471.6,4.019l.884.874,2.829-2.8v8.919a1.279,1.279,0,0,0,1.326,1.224h13.7v5.247H479.115a1.277,1.277,0,0,0-1.238,1.312v5.946a1.279,1.279,0,0,0,1.326,1.224h9.813v9.007h1.326V25.793A1.411,1.411,0,0,0,489.016,24.569Z" transform="translate(-466.119 0.025)"/>
      <path id="Path_38" data-name="Path 38" class="cls-2" d="M483.082,28.972a.6.6,0,0,0-.619-.612H475.3a.6.6,0,0,0-.619.612V30.9h1.326V29.584h5.923v2.623h-9.813V20.577a.6.6,0,0,0-.619-.612h-3.271v1.312h2.652v4.547h-3.89V17.429h7.868a.6.6,0,0,0,.619-.612V14.193h-1.591v1.924h-1.326V8.247a.6.6,0,0,0-.619-.612h-5.216V5.012h1.945V3.7h-2.652a.6.6,0,0,0-.619.612V26.348a.6.6,0,0,0,.619.612h4.6v5.859a.6.6,0,0,0,.619.612h15.648V32.12h-3.89V28.972Z" transform="translate(-465.4 -0.443)"/>
    </g>
  </g>
</svg>
