<svg id="Group_236" data-name="Group 236" xmlns="http://www.w3.org/2000/svg" viewBox="675.1 240.2 39 35">
  <defs>
    <style>
      .cls-1 {
        fill: #d9d9d9;
      }

      .cls-2 {
        fill: #666;
      }
    </style>
  </defs>
  <g id="Group_202" data-name="Group 202" transform="translate(73 240.2)">
    <g id="Group_196" data-name="Group 196" transform="translate(602.1 5.075)">
      <g id="Group_180" data-name="Group 180" transform="translate(0 3.763)">
        <g id="Group_177" data-name="Group 177" transform="translate(2.039)">
          <g id="Group_176" data-name="Group 176">
            <rect id="Rectangle_59" data-name="Rectangle 59" class="cls-1" width="3.102" height="0.7"/>
          </g>
        </g>
        <g id="Group_179" data-name="Group 179">
          <g id="Group_178" data-name="Group 178">
            <rect id="Rectangle_60" data-name="Rectangle 60" class="cls-1" width="1.064" height="0.7"/>
          </g>
        </g>
      </g>
      <g id="Group_185" data-name="Group 185" transform="translate(4.875 25.55)">
        <g id="Group_182" data-name="Group 182" transform="translate(1.507)">
          <g id="Group_181" data-name="Group 181">
            <rect id="Rectangle_61" data-name="Rectangle 61" class="cls-1" width="3.102" height="0.787"/>
          </g>
        </g>
        <g id="Group_184" data-name="Group 184">
          <g id="Group_183" data-name="Group 183">
            <rect id="Rectangle_62" data-name="Rectangle 62" class="cls-1" width="0.798" height="0.787"/>
          </g>
        </g>
      </g>
      <g id="Group_190" data-name="Group 190" transform="translate(27.92)">
        <g id="Group_187" data-name="Group 187">
          <g id="Group_186" data-name="Group 186">
            <rect id="Rectangle_63" data-name="Rectangle 63" class="cls-1" width="3.723" height="0.875"/>
          </g>
        </g>
        <g id="Group_189" data-name="Group 189" transform="translate(4.964)">
          <g id="Group_188" data-name="Group 188">
            <rect id="Rectangle_64" data-name="Rectangle 64" class="cls-1" width="1.241" height="0.875"/>
          </g>
        </g>
      </g>
      <g id="Group_195" data-name="Group 195" transform="translate(34.125 19.075)">
        <g id="Group_192" data-name="Group 192">
          <g id="Group_191" data-name="Group 191">
            <rect id="Rectangle_65" data-name="Rectangle 65" class="cls-1" width="3.191" height="0.787"/>
          </g>
        </g>
        <g id="Group_194" data-name="Group 194" transform="translate(4.077)">
          <g id="Group_193" data-name="Group 193">
            <rect id="Rectangle_66" data-name="Rectangle 66" class="cls-1" width="0.798" height="0.787"/>
          </g>
        </g>
      </g>
    </g>
    <g id="Group_201" data-name="Group 201" transform="translate(605.114)">
      <g id="Group_200" data-name="Group 200" transform="translate(11.08)">
        <g id="Group_197" data-name="Group 197" transform="translate(0 7.438)">
          <path id="Path_45" data-name="Path 45" class="cls-2" d="M627.218,11.387h-8.243a.966.966,0,0,1-.975-.875V9.375a.906.906,0,0,1,.975-.875h8.243a.966.966,0,0,1,.975.875v1.137A.906.906,0,0,1,627.218,11.387ZM618.975,8.85a.568.568,0,0,0-.532.525v1.137a.568.568,0,0,0,.532.525h8.243a.568.568,0,0,0,.532-.525V9.375a.568.568,0,0,0-.532-.525Z" transform="translate(-618 -8.5)"/>
        </g>
        <g id="Group_198" data-name="Group 198" transform="translate(3.28)">
          <path id="Path_46" data-name="Path 46" class="cls-2" d="M624.8,7.175h-2.659a.416.416,0,0,1-.443-.437V.875A.906.906,0,0,1,622.675,0h1.773a.966.966,0,0,1,.975.875V6.65A.645.645,0,0,1,624.8,7.175ZM622.675.35a.568.568,0,0,0-.532.525V6.65c0,.087,0,.087.089.087h2.659c.089,0,.089,0,.089-.087V.875a.568.568,0,0,0-.532-.525h-1.773Z" transform="translate(-621.7)"/>
        </g>
        <g id="Group_199" data-name="Group 199" transform="translate(3.368 10.5)">
          <path id="Path_47" data-name="Path 47" class="cls-2" d="M623.573,36.5c-1.507,0-1.773-2.975-1.773-4.025V12.438a.416.416,0,0,1,.443-.437H624.9a.416.416,0,0,1,.443.438V32.475C625.345,33.612,624.991,36.5,623.573,36.5Zm-1.33-24.15c-.089,0-.089.088,0,0l-.089,20.125c0,.962.355,3.675,1.418,3.675s1.418-2.538,1.418-3.675V12.438c0-.088,0-.088-.089-.088Z" transform="translate(-621.8 -12)"/>
        </g>
      </g>
      <path id="Path_48" data-name="Path 48" class="cls-2" d="M619.15,13.762c0-.175-.177-.262-.355-.262l-6.559.963a.281.281,0,0,0-.266.262L605.5,26.45h0v.088h0v.087h0a5.886,5.886,0,0,0,1.33,1.925,7.677,7.677,0,0,0,5.5,1.925,7.852,7.852,0,0,0,5.5-1.925,5.886,5.886,0,0,0,1.33-1.925h0v-.087h0V26.45h0l-6.382-11.462,6.2-.875C619.061,14.113,619.15,13.938,619.15,13.762Zm-12.941,12.6,6.027-10.85,6.027,10.85Z" transform="translate(-605.5 -1.688)"/>
      <path id="Path_49" data-name="Path 49" class="cls-2" d="M640.35,23.575h0v-.087h0l-6.47-11.725h0c0-.175-.177-.262-.355-.262l-6.559.963c-.177,0-.266.175-.266.35a.281.281,0,0,0,.266.262h0l6.027-.875L626.7,23.487h0v.087h0v.088h0a5.885,5.885,0,0,0,1.33,1.925,7.677,7.677,0,0,0,5.5,1.925,7.852,7.852,0,0,0,5.5-1.925,4.09,4.09,0,0,0,1.33-2.013ZM627.5,23.313l6.027-10.85,6.027,10.85Z" transform="translate(-607.909 -1.437)"/>
    </g>
  </g>
</svg>
